<?xml version="1.0" encoding="UTF-8" standalone="no"?>
<!-- Created with Inkscape (http://www.inkscape.org/) -->

<svg
   xmlns:dc="http://purl.org/dc/elements/1.1/"
   xmlns:cc="http://creativecommons.org/ns#"
   xmlns:rdf="http://www.w3.org/1999/02/22-rdf-syntax-ns#"
   xmlns:svg="http://www.w3.org/2000/svg"
   xmlns="http://www.w3.org/2000/svg"
   xmlns:sodipodi="http://sodipodi.sourceforge.net/DTD/sodipodi-0.dtd"
   xmlns:inkscape="http://www.inkscape.org/namespaces/inkscape"
   width="134.59921mm"
   height="14.703217mm"
   viewBox="0 0 134.5992 14.703218"
   version="1.1"
   id="svg8"
   sodipodi:docname="1.1 German series 1 - 16.svg"
   inkscape:export-filename="C:\Users\j\Documents\Web Design\Practice Websites\FreudTexts\1 English series 1 - 16.png"
   inkscape:export-xdpi="245.05702"
   inkscape:export-ydpi="245.05702"
   inkscape:version="0.92.3 (2405546, 2018-03-11)">
  <defs
     id="defs2" />
  <sodipodi:namedview
     id="base"
     pagecolor="#224646"
     bordercolor="#666666"
     borderopacity="1.0"
     inkscape:pageopacity="0"
     inkscape:pageshadow="2"
     inkscape:zoom="1.979899"
     inkscape:cx="278.54956"
     inkscape:cy="10.550991"
     inkscape:document-units="mm"
     inkscape:current-layer="layer1"
     showgrid="true"
     showguides="false"
     fit-margin-top="0"
     fit-margin-left="0"
     fit-margin-right="0"
     fit-margin-bottom="0"
     inkscape:window-width="1366"
     inkscape:window-height="705"
     inkscape:window-x="-8"
     inkscape:window-y="-8"
     inkscape:window-maximized="1">
    <inkscape:grid
       type="xygrid"
       id="grid3741"
       snapvisiblegridlinesonly="false"
       color="#3f3f16"
       opacity="0.1254902"
       originx="109.79816"
       originy="-212.3927" />
  </sodipodi:namedview>
  <metadata
     id="metadata5">
    <rdf:RDF>
      <cc:Work
         rdf:about="">
        <dc:format>image/svg+xml</dc:format>
        <dc:type
           rdf:resource="http://purl.org/dc/dcmitype/StillImage" />
        <dc:title></dc:title>
      </cc:Work>
    </rdf:RDF>
  </metadata>
  <g
     inkscape:label="Layer 1"
     inkscape:groupmode="layer"
     id="layer1"
     transform="translate(109.79817,-69.90424)">
    <text
       xml:space="preserve"
       style="font-style:normal;font-variant:normal;font-weight:normal;font-stretch:normal;font-size:5.64444447px;line-height:1.25;font-family:'Times New Roman';-inkscape-font-specification:'Times New Roman, ';letter-spacing:0px;word-spacing:0px;fill:#000000;fill-opacity:1;stroke:none;stroke-width:0.26458332"
       x="13.040178"
       y="35.629463"
       id="text16"><tspan
         sodipodi:role="line"
         id="tspan14"
         x="13.040178"
         y="40.639591"
         style="stroke-width:0.26458332" /></text>
    <text
       xml:space="preserve"
       style="font-style:normal;font-variant:normal;font-weight:normal;font-stretch:normal;font-size:5.64444447px;line-height:1.25;font-family:'Times New Roman';-inkscape-font-specification:'Times New Roman, ';letter-spacing:0px;word-spacing:0px;fill:#000000;fill-opacity:1;stroke:none;stroke-width:0.26458332"
       x="42.333332"
       y="42.735416"
       id="text3805"><tspan
         sodipodi:role="line"
         id="tspan3803"
         x="42.333332"
         y="47.745544"
         style="stroke-width:0.26458332" /></text>
    <flowRoot
       xml:space="preserve"
       id="flowRoot4660"
       style="font-style:normal;font-variant:normal;font-weight:normal;font-stretch:normal;font-size:21.33333397px;line-height:1.25;font-family:'Times New Roman';-inkscape-font-specification:'Times New Roman, ';letter-spacing:0px;word-spacing:0px;fill:#223221;fill-opacity:0.14509804;stroke:none"
       transform="matrix(0.26458333,0,0,0.26458333,12.099175,23.778631)"><flowRegion
         id="flowRegion4662"
         style="fill:#223221;fill-opacity:0.14509804"><rect
           id="rect4664"
           width="21.718279"
           height="50.002552"
           x="346.48233"
           y="114.68969"
           style="fill:#223221;fill-opacity:0.14509804" /></flowRegion><flowPara
         id="flowPara4666" /></flowRoot>    <flowRoot
       xml:space="preserve"
       id="flowRoot4670"
       style="font-style:normal;font-variant:normal;font-weight:normal;font-stretch:normal;font-size:21.33333397px;line-height:1.25;font-family:'Times New Roman';-inkscape-font-specification:'Times New Roman, ';letter-spacing:0px;word-spacing:0px;fill:#000000;fill-opacity:1;stroke:none"
       transform="matrix(0.26458333,0,0,0.26458333,12.099175,23.778631)"><flowRegion
         id="flowRegion4672"><rect
           id="rect4674"
           width="392.94934"
           height="66.670067"
           x="-3.0304577"
           y="-4.5083117" /></flowRegion><flowPara
         id="flowPara4676" /></flowRoot>    <g
       aria-label="1     2     3     4     5     6     7      8    9      10     11    12    13     14     15    16 "
       style="font-style:normal;font-variant:normal;font-weight:normal;font-stretch:normal;font-size:4.23333311px;line-height:1.25;font-family:'Open Sans Condensed';-inkscape-font-specification:'Open Sans Condensed, ';letter-spacing:0px;word-spacing:0px;fill:#dfddfe;fill-opacity:1;stroke:none;stroke-width:0.26458332"
       id="text12-5">
      <path
         d="m 12.541501,50.463013 h -0.198438 v -2.222087 q 0,-0.270784 0.01654,-0.584977 -0.04341,0.05788 -0.202572,0.217041 l -0.258382,0.235645 -0.10542,-0.130225 0.58291,-0.537435 h 0.165365 z"
         style="font-style:normal;font-variant:normal;font-weight:normal;font-stretch:normal;font-size:4.23333311px;font-family:'Open Sans Condensed';-inkscape-font-specification:'Open Sans Condensed, ';fill:#dfddfe;fill-opacity:1;stroke-width:0.26458332"
         id="path440"
         inkscape:connector-curvature="0" />
      <path
         d="m 18.653789,50.463013 h -1.353923 v -0.161231 l 0.609782,-0.921907 q 0.28112,-0.427881 0.376204,-0.686263 0.09715,-0.258382 0.09715,-0.576709 0,-0.243913 -0.12609,-0.388607 -0.126091,-0.144694 -0.343132,-0.144694 -0.142627,0 -0.250114,0.04341 -0.10542,0.04134 -0.212907,0.126091 l -0.109554,-0.15503 q 0.144694,-0.109554 0.276986,-0.155029 0.134359,-0.04547 0.307992,-0.04547 0.312125,0 0.485758,0.194303 0.173633,0.194304 0.173633,0.525033 0,0.227376 -0.05168,0.427881 -0.04961,0.200504 -0.142627,0.39274 -0.09095,0.192237 -0.303857,0.500228 l -0.556038,0.822689 v 0.01654 h 1.122412 z"
         style="font-style:normal;font-variant:normal;font-weight:normal;font-stretch:normal;font-size:4.23333311px;font-family:'Open Sans Condensed';-inkscape-font-specification:'Open Sans Condensed, ';fill:#dfddfe;fill-opacity:1;stroke-width:0.26458332"
         id="path442"
         inkscape:connector-curvature="0" />
      <path
         d="m 24.249312,48.112769 q 0,0.283187 -0.121956,0.481624 -0.121957,0.19637 -0.367936,0.285254 v 0.01654 q 0.254248,0.05581 0.394808,0.254248 0.142626,0.196371 0.142626,0.496094 0,0.392741 -0.200504,0.626318 -0.198438,0.231511 -0.541569,0.231511 -0.347266,0 -0.570508,-0.109554 v -0.223242 q 0.260449,0.150895 0.570508,0.150895 0.252181,0 0.392741,-0.181901 0.14056,-0.183968 0.14056,-0.502295 0,-0.30179 -0.163298,-0.473356 -0.163297,-0.171566 -0.483691,-0.171566 H 23.288131 V 48.80317 h 0.165364 q 0.264583,0 0.427881,-0.183968 0.165365,-0.186035 0.165365,-0.487826 0,-0.258382 -0.117823,-0.405143 -0.115755,-0.146761 -0.326595,-0.146761 -0.142627,0 -0.256315,0.04754 -0.111621,0.04754 -0.252181,0.177767 l -0.12609,-0.132292 q 0.152962,-0.148828 0.30179,-0.210839 0.150895,-0.06408 0.328662,-0.06408 0.297656,0 0.473356,0.19637 0.177767,0.196371 0.177767,0.518831 z"
         style="font-style:normal;font-variant:normal;font-weight:normal;font-stretch:normal;font-size:4.23333311px;font-family:'Open Sans Condensed';-inkscape-font-specification:'Open Sans Condensed, ';fill:#dfddfe;fill-opacity:1;stroke-width:0.26458332"
         id="path444"
         inkscape:connector-curvature="0" />
      <path
         d="m 30.113553,49.77675 h -0.322461 v 0.686263 H 29.592655 V 49.77675 h -1.041797 v -0.173633 l 0.99012,-2.197282 h 0.250114 v 2.18488 h 0.322461 z m -0.520898,-0.186035 v -1.459343 q 0,-0.252181 0.01654,-0.491959 h -0.0124 l -0.152963,0.388606 -0.686262,1.562696 z"
         style="font-style:normal;font-variant:normal;font-weight:normal;font-stretch:normal;font-size:4.23333311px;font-family:'Open Sans Condensed';-inkscape-font-specification:'Open Sans Condensed, ';fill:#dfddfe;fill-opacity:1;stroke-width:0.26458332"
         id="path446"
         inkscape:connector-curvature="0" />
      <path
         d="m 34.892589,48.834172 q -0.21084,0 -0.427881,0.06201 l -0.101286,-0.130224 0.08888,-1.324984 h 1.023193 v 0.194303 h -0.855762 l -0.07441,1.062468 q 0.186035,-0.04134 0.359668,-0.04134 0.338998,0 0.537435,0.225309 0.198438,0.225309 0.198438,0.620117 0,0.45682 -0.217041,0.729671 -0.217041,0.272852 -0.578776,0.272852 -0.322461,0 -0.504362,-0.113688 v -0.227377 q 0.227376,0.159164 0.496093,0.159164 0.274919,0 0.436149,-0.225309 0.161231,-0.22531 0.161231,-0.587045 0,-0.338997 -0.144694,-0.506429 -0.144694,-0.169498 -0.396875,-0.169498 z"
         style="font-style:normal;font-variant:normal;font-weight:normal;font-stretch:normal;font-size:4.23333311px;font-family:'Open Sans Condensed';-inkscape-font-specification:'Open Sans Condensed, ';fill:#dfddfe;fill-opacity:1;stroke-width:0.26458332"
         id="path448"
         inkscape:connector-curvature="0" />
      <path
         d="m 40.008557,49.175236 q 0,-0.907438 0.221175,-1.34152 0.221175,-0.436149 0.655257,-0.436149 0.159164,0 0.262516,0.04754 v 0.198438 q -0.119889,-0.05168 -0.279052,-0.05168 -0.297656,0 -0.467155,0.343132 -0.167432,0.341064 -0.188102,0.996321 h 0.01654 q 0.07028,-0.157096 0.192236,-0.245979 0.121957,-0.08888 0.28112,-0.08888 0.28112,0 0.44235,0.250114 0.163298,0.250114 0.163298,0.68833 0,0.452686 -0.171566,0.711068 -0.171566,0.258382 -0.463021,0.258382 -0.324528,0 -0.496093,-0.341065 -0.169499,-0.341064 -0.169499,-0.988053 z m 0.669727,1.134814 q 0.204638,0 0.314192,-0.190169 0.109554,-0.190169 0.109554,-0.574642 0,-0.367936 -0.107487,-0.562239 -0.107487,-0.196371 -0.320394,-0.196371 -0.206705,0 -0.332796,0.167432 -0.124023,0.167432 -0.124023,0.425814 0,0.258382 0.05788,0.481624 0.05994,0.221175 0.161231,0.334863 0.103353,0.113688 0.241846,0.113688 z"
         style="font-style:normal;font-variant:normal;font-weight:normal;font-stretch:normal;font-size:4.23333311px;font-family:'Open Sans Condensed';-inkscape-font-specification:'Open Sans Condensed, ';fill:#dfddfe;fill-opacity:1;stroke-width:0.26458332"
         id="path450"
         inkscape:connector-curvature="0" />
      <path
         d="m 45.868662,50.463013 0.938444,-2.827735 h -1.223698 v -0.194303 h 1.428336 v 0.169499 l -0.932242,2.852539 z"
         style="font-style:normal;font-variant:normal;font-weight:normal;font-stretch:normal;font-size:4.23333311px;font-family:'Open Sans Condensed';-inkscape-font-specification:'Open Sans Condensed, ';fill:#dfddfe;fill-opacity:1;stroke-width:0.26458332"
         id="path452"
         inkscape:connector-curvature="0" />
      <path
         d="m 52.774702,47.397567 q 0.285254,0 0.458887,0.186035 0.1757,0.183968 0.1757,0.508496 0,0.500228 -0.496094,0.795817 0.221175,0.148828 0.330729,0.264583 0.109554,0.115756 0.169499,0.254248 0.05994,0.136426 0.05994,0.307992 0,0.345199 -0.192237,0.568441 -0.190169,0.221175 -0.485758,0.221175 -0.318327,0 -0.520899,-0.21084 -0.202571,-0.212907 -0.202571,-0.553971 0,-0.26045 0.111621,-0.463021 0.113688,-0.204639 0.394808,-0.388607 -0.436149,-0.334863 -0.436149,-0.787549 0,-0.312125 0.1757,-0.506429 0.177767,-0.19637 0.456819,-0.19637 z m -0.491959,2.34611 q 0,0.260449 0.136425,0.417545 0.136426,0.157097 0.359668,0.157097 0.219108,0 0.349333,-0.163298 0.132292,-0.165364 0.132292,-0.450618 0,-0.367936 -0.427881,-0.663526 l -0.101286,-0.06821 q -0.250114,0.161231 -0.349333,0.334864 -0.09922,0.171565 -0.09922,0.436149 z m 0.487825,-2.160075 q -0.194303,0 -0.307991,0.138493 -0.111621,0.138493 -0.111621,0.38654 0,0.212906 0.09302,0.37207 0.09302,0.159163 0.326595,0.314193 0.225309,-0.134359 0.326595,-0.303858 0.103353,-0.169499 0.103353,-0.382405 0,-0.248047 -0.113688,-0.38654 -0.111621,-0.138493 -0.31626,-0.138493 z"
         style="font-style:normal;font-variant:normal;font-weight:normal;font-stretch:normal;font-size:4.23333311px;font-family:'Open Sans Condensed';-inkscape-font-specification:'Open Sans Condensed, ';fill:#dfddfe;fill-opacity:1;stroke-width:0.26458332"
         id="path454"
         inkscape:connector-curvature="0" />
      <path
         d="m 58.791903,48.689478 q 0,0.903304 -0.227376,1.360123 -0.225309,0.454753 -0.661459,0.454753 -0.07648,0 -0.163297,-0.01447 -0.08475,-0.01447 -0.117822,-0.03101 v -0.198438 q 0.113688,0.04961 0.297656,0.04961 0.299723,0 0.473356,-0.347265 0.173633,-0.347266 0.194303,-0.990121 h -0.01654 q -0.07028,0.157097 -0.192236,0.24598 -0.121957,0.08888 -0.28112,0.08888 -0.283187,0 -0.444417,-0.254248 -0.161231,-0.254248 -0.161231,-0.686263 0,-0.450619 0.173633,-0.709001 0.1757,-0.260449 0.485758,-0.260449 0.31626,0 0.477491,0.334863 0.163297,0.332796 0.163297,0.957048 z m -0.65319,-1.097608 q -0.202572,0 -0.322461,0.192237 -0.117822,0.190169 -0.117822,0.574641 0,0.367937 0.107487,0.564307 0.107487,0.194303 0.320394,0.194303 0.206705,0 0.330729,-0.173632 0.12609,-0.1757 0.12609,-0.467155 0,-0.258382 -0.05581,-0.465088 -0.05374,-0.206706 -0.152962,-0.312126 -0.09922,-0.107487 -0.235645,-0.107487 z"
         style="font-style:normal;font-variant:normal;font-weight:normal;font-stretch:normal;font-size:4.23333311px;font-family:'Open Sans Condensed';-inkscape-font-specification:'Open Sans Condensed, ';fill:#dfddfe;fill-opacity:1;stroke-width:0.26458332"
         id="path456"
         inkscape:connector-curvature="0" />
      <path
         d="m 63.250547,50.463013 h -0.198438 v -2.222087 q 0,-0.270784 0.01654,-0.584977 -0.04341,0.05788 -0.202572,0.217041 l -0.258382,0.235645 -0.10542,-0.130225 0.58291,-0.537435 h 0.165365 z"
         style="font-style:normal;font-variant:normal;font-weight:normal;font-stretch:normal;font-size:4.23333311px;font-family:'Open Sans Condensed';-inkscape-font-specification:'Open Sans Condensed, ';fill:#dfddfe;fill-opacity:1;stroke-width:0.26458332"
         id="path458"
         inkscape:connector-curvature="0" />
      <path
         d="m 65.394083,48.94786 q 0,0.766878 -0.167432,1.161686 -0.165365,0.394808 -0.496094,0.394808 -0.349332,0 -0.506429,-0.363802 -0.155029,-0.365869 -0.155029,-1.192692 0,-1.550293 0.661458,-1.550293 0.343132,0 0.502295,0.384473 0.161231,0.384472 0.161231,1.16582 z m -1.114144,0 q 0,0.682129 0.107487,1.023193 0.109554,0.338997 0.343131,0.338997 0.452686,0 0.452686,-1.36219 0,-1.35599 -0.452686,-1.35599 -0.233577,0 -0.343131,0.334864 -0.107487,0.334863 -0.107487,1.021126 z"
         style="font-style:normal;font-variant:normal;font-weight:normal;font-stretch:normal;font-size:4.23333311px;font-family:'Open Sans Condensed';-inkscape-font-specification:'Open Sans Condensed, ';fill:#dfddfe;fill-opacity:1;stroke-width:0.26458332"
         id="path460"
         inkscape:connector-curvature="0" />
      <path
         d="m 70.609269,50.463013 h -0.198437 v -2.222087 q 0,-0.270784 0.01654,-0.584977 -0.04341,0.05788 -0.202571,0.217041 l -0.258382,0.235645 -0.10542,-0.130225 0.58291,-0.537435 h 0.165364 z"
         style="font-style:normal;font-variant:normal;font-weight:normal;font-stretch:normal;font-size:4.23333311px;font-family:'Open Sans Condensed';-inkscape-font-specification:'Open Sans Condensed, ';fill:#dfddfe;fill-opacity:1;stroke-width:0.26458332"
         id="path462"
         inkscape:connector-curvature="0" />
      <path
         d="M 72.304258,50.463013 H 72.10582 v -2.222087 q 0,-0.270784 0.01654,-0.584977 -0.04341,0.05788 -0.202572,0.217041 l -0.258382,0.235645 -0.10542,-0.130225 0.58291,-0.537435 h 0.165365 z"
         style="font-style:normal;font-variant:normal;font-weight:normal;font-stretch:normal;font-size:4.23333311px;font-family:'Open Sans Condensed';-inkscape-font-specification:'Open Sans Condensed, ';fill:#dfddfe;fill-opacity:1;stroke-width:0.26458332"
         id="path464"
         inkscape:connector-curvature="0" />
      <path
         d="m 77.174245,50.463013 h -0.198437 v -2.222087 q 0,-0.270784 0.01654,-0.584977 -0.04341,0.05788 -0.202572,0.217041 l -0.258382,0.235645 -0.10542,-0.130225 0.582911,-0.537435 h 0.165364 z"
         style="font-style:normal;font-variant:normal;font-weight:normal;font-stretch:normal;font-size:4.23333311px;font-family:'Open Sans Condensed';-inkscape-font-specification:'Open Sans Condensed, ';fill:#dfddfe;fill-opacity:1;stroke-width:0.26458332"
         id="path466"
         inkscape:connector-curvature="0" />
      <path
         d="m 79.317781,50.463013 h -1.353922 v -0.161231 l 0.609781,-0.921907 q 0.28112,-0.427881 0.376205,-0.686263 0.09715,-0.258382 0.09715,-0.576709 0,-0.243913 -0.12609,-0.388607 -0.126091,-0.144694 -0.343132,-0.144694 -0.142626,0 -0.250113,0.04341 -0.10542,0.04134 -0.212907,0.126091 l -0.109554,-0.15503 q 0.144694,-0.109554 0.276985,-0.155029 0.134359,-0.04547 0.307992,-0.04547 0.312125,0 0.485758,0.194303 0.173633,0.194304 0.173633,0.525033 0,0.227376 -0.05168,0.427881 -0.04961,0.200504 -0.142627,0.39274 -0.09095,0.192237 -0.303858,0.500228 l -0.556038,0.822689 v 0.01654 h 1.122412 z"
         style="font-style:normal;font-variant:normal;font-weight:normal;font-stretch:normal;font-size:4.23333311px;font-family:'Open Sans Condensed';-inkscape-font-specification:'Open Sans Condensed, ';fill:#dfddfe;fill-opacity:1;stroke-width:0.26458332"
         id="path468"
         inkscape:connector-curvature="0" />
      <path
         d="M 83.739217,50.463013 H 83.54078 v -2.222087 q 0,-0.270784 0.01654,-0.584977 -0.04341,0.05788 -0.202572,0.217041 l -0.258382,0.235645 -0.10542,-0.130225 0.58291,-0.537435 h 0.165365 z"
         style="font-style:normal;font-variant:normal;font-weight:normal;font-stretch:normal;font-size:4.23333311px;font-family:'Open Sans Condensed';-inkscape-font-specification:'Open Sans Condensed, ';fill:#dfddfe;fill-opacity:1;stroke-width:0.26458332"
         id="path470"
         inkscape:connector-curvature="0" />
      <path
         d="m 85.81454,48.112769 q 0,0.283187 -0.121956,0.481624 -0.121957,0.19637 -0.367937,0.285254 v 0.01654 q 0.254248,0.05581 0.394808,0.254248 0.142627,0.196371 0.142627,0.496094 0,0.392741 -0.200504,0.626318 -0.198438,0.231511 -0.541569,0.231511 -0.347266,0 -0.570508,-0.109554 v -0.223242 q 0.260449,0.150895 0.570508,0.150895 0.252181,0 0.392741,-0.181901 0.14056,-0.183968 0.14056,-0.502295 0,-0.30179 -0.163298,-0.473356 -0.163298,-0.171566 -0.483691,-0.171566 H 84.853358 V 48.80317 h 0.165365 q 0.264583,0 0.427881,-0.183968 0.165364,-0.186035 0.165364,-0.487826 0,-0.258382 -0.117822,-0.405143 -0.115755,-0.146761 -0.326595,-0.146761 -0.142627,0 -0.256315,0.04754 -0.111621,0.04754 -0.252181,0.177767 l -0.12609,-0.132292 q 0.152962,-0.148828 0.30179,-0.210839 0.150895,-0.06408 0.328662,-0.06408 0.297656,0 0.473356,0.19637 0.177767,0.196371 0.177767,0.518831 z"
         style="font-style:normal;font-variant:normal;font-weight:normal;font-stretch:normal;font-size:4.23333311px;font-family:'Open Sans Condensed';-inkscape-font-specification:'Open Sans Condensed, ';fill:#dfddfe;fill-opacity:1;stroke-width:0.26458332"
         id="path472"
         inkscape:connector-curvature="0" />
      <path
         d="m 91.097944,50.463013 h -0.198438 v -2.222087 q 0,-0.270784 0.01654,-0.584977 -0.04341,0.05788 -0.202572,0.217041 l -0.258382,0.235645 -0.10542,-0.130225 0.58291,-0.537435 h 0.165365 z"
         style="font-style:normal;font-variant:normal;font-weight:normal;font-stretch:normal;font-size:4.23333311px;font-family:'Open Sans Condensed';-inkscape-font-specification:'Open Sans Condensed, ';fill:#dfddfe;fill-opacity:1;stroke-width:0.26458332"
         id="path474"
         inkscape:connector-curvature="0" />
      <path
         d="M 93.373771,49.77675 H 93.05131 v 0.686263 H 92.852873 V 49.77675 h -1.041797 v -0.173633 l 0.99012,-2.197282 h 0.250114 v 2.18488 h 0.322461 z m -0.520898,-0.186035 v -1.459343 q 0,-0.252181 0.01654,-0.491959 h -0.0124 l -0.152962,0.388606 -0.686263,1.562696 z"
         style="font-style:normal;font-variant:normal;font-weight:normal;font-stretch:normal;font-size:4.23333311px;font-family:'Open Sans Condensed';-inkscape-font-specification:'Open Sans Condensed, ';fill:#dfddfe;fill-opacity:1;stroke-width:0.26458332"
         id="path476"
         inkscape:connector-curvature="0" />
      <path
         d="m 98.456662,50.463013 h -0.198437 v -2.222087 q 0,-0.270784 0.01654,-0.584977 -0.04341,0.05788 -0.202571,0.217041 l -0.258382,0.235645 -0.10542,-0.130225 0.58291,-0.537435 h 0.165364 z"
         style="font-style:normal;font-variant:normal;font-weight:normal;font-stretch:normal;font-size:4.23333311px;font-family:'Open Sans Condensed';-inkscape-font-specification:'Open Sans Condensed, ';fill:#dfddfe;fill-opacity:1;stroke-width:0.26458332"
         id="path478"
         inkscape:connector-curvature="0" />
      <path
         d="m 99.847793,48.834172 q -0.21084,0 -0.427877,0.06201 l -0.10129,-0.130224 0.0889,-1.324984 h 1.023184 v 0.194303 h -0.855757 l -0.0744,1.062468 q 0.18603,-0.04134 0.35966,-0.04134 0.338997,0 0.537437,0.225309 0.19844,0.225309 0.19844,0.620117 0,0.45682 -0.21705,0.729671 -0.21704,0.272852 -0.578767,0.272852 -0.32246,0 -0.504357,-0.113688 v -0.227377 q 0.227367,0.159164 0.496087,0.159164 0.274917,0 0.436147,-0.225309 0.16123,-0.22531 0.16123,-0.587045 0,-0.338997 -0.14469,-0.506429 -0.1447,-0.169498 -0.396877,-0.169498 z"
         style="font-style:normal;font-variant:normal;font-weight:normal;font-stretch:normal;font-size:4.23333311px;font-family:'Open Sans Condensed';-inkscape-font-specification:'Open Sans Condensed, ';fill:#dfddfe;fill-opacity:1;stroke-width:0.26458332"
         id="path480"
         inkscape:connector-curvature="0" />
      <path
         d="m 105.02163,50.463013 h -0.19844 v -2.222087 q 0,-0.270784 0.0165,-0.584977 -0.0434,0.05788 -0.20257,0.217041 l -0.25839,0.235645 -0.10542,-0.130225 0.58291,-0.537435 h 0.16537 z"
         style="font-style:normal;font-variant:normal;font-weight:normal;font-stretch:normal;font-size:4.23333311px;font-family:'Open Sans Condensed';-inkscape-font-specification:'Open Sans Condensed, ';fill:#dfddfe;fill-opacity:1;stroke-width:0.26458332"
         id="path482"
         inkscape:connector-curvature="0" />
      <path
         d="m 105.86499,49.175236 q 0,-0.907438 0.22118,-1.34152 0.22117,-0.436149 0.65526,-0.436149 0.15916,0 0.26251,0.04754 v 0.198438 q -0.11989,-0.05168 -0.27905,-0.05168 -0.29766,0 -0.46716,0.343132 -0.16743,0.341064 -0.1881,0.996321 h 0.0165 q 0.0703,-0.157096 0.19223,-0.245979 0.12196,-0.08888 0.28112,-0.08888 0.28112,0 0.44235,0.250114 0.1633,0.250114 0.1633,0.68833 0,0.452686 -0.17156,0.711068 -0.17157,0.258382 -0.46302,0.258382 -0.32453,0 -0.4961,-0.341065 -0.1695,-0.341064 -0.1695,-0.988053 z m 0.66973,1.134814 q 0.20464,0 0.31419,-0.190169 0.10956,-0.190169 0.10956,-0.574642 0,-0.367936 -0.10749,-0.562239 -0.10749,-0.196371 -0.32039,-0.196371 -0.20671,0 -0.3328,0.167432 -0.12402,0.167432 -0.12402,0.425814 0,0.258382 0.0579,0.481624 0.06,0.221175 0.16123,0.334863 0.10336,0.113688 0.24185,0.113688 z"
         style="font-style:normal;font-variant:normal;font-weight:normal;font-stretch:normal;font-size:4.23333311px;font-family:'Open Sans Condensed';-inkscape-font-specification:'Open Sans Condensed, ';fill:#dfddfe;fill-opacity:1;stroke-width:0.26458332"
         id="path484"
         inkscape:connector-curvature="0" />
    </g>
    <g
       aria-label="  "
       style="font-style:normal;font-variant:normal;font-weight:normal;font-stretch:normal;font-size:4.23333311px;line-height:1.25;font-family:'Open Sans Condensed';-inkscape-font-specification:'Open Sans Condensed, ';letter-spacing:0px;word-spacing:0px;fill:#dfddfe;fill-opacity:1;stroke:none;stroke-width:0.26458332"
       id="text26-1" />
    <g
       aria-label="c"
       style="font-style:normal;font-variant:normal;font-weight:normal;font-stretch:normal;font-size:4.23333311px;line-height:1.25;font-family:'Open Sans Condensed';-inkscape-font-specification:'Open Sans Condensed, ';letter-spacing:0px;word-spacing:0px;fill:#dfddfe;fill-opacity:1;stroke:none;stroke-width:0.26458332"
       id="text3739-6">
      <path
         d="m 12.3596,56.136194 q -0.33693,0 -0.508496,-0.291455 -0.169499,-0.293523 -0.169499,-0.859896 0,-0.574642 0.171566,-0.874365 0.173633,-0.301791 0.510563,-0.301791 0.208773,0 0.347266,0.07648 L 12.63452,54.0588 q -0.138492,-0.06408 -0.254248,-0.06408 -0.494026,0 -0.494026,0.985987 0,0.977718 0.494026,0.977718 0.146762,0 0.318327,-0.06615 v 0.165364 q -0.06821,0.03721 -0.167431,0.05788 -0.09922,0.02067 -0.171566,0.02067 z"
         style="font-style:normal;font-variant:normal;font-weight:normal;font-stretch:normal;font-size:4.23333311px;font-family:'Open Sans Condensed';-inkscape-font-specification:'Open Sans Condensed, ';fill:#dfddfe;fill-opacity:1;stroke-width:0.26458332"
         id="path436"
         inkscape:connector-curvature="0" />
    </g>
    <g
       aria-label="c "
       style="font-style:normal;font-variant:normal;font-weight:normal;font-stretch:normal;font-size:4.23333311px;line-height:1.25;font-family:'Open Sans Condensed';-inkscape-font-specification:'Open Sans Condensed, ';letter-spacing:0px;word-spacing:0px;fill:#dfddfe;fill-opacity:1;stroke:none;stroke-width:0.26458332"
       id="text3745-7">
      <path
         d="m 18.035236,55.974885 q -0.33693,0 -0.508496,-0.291455 -0.169499,-0.293522 -0.169499,-0.859896 0,-0.574641 0.171566,-0.874365 0.173633,-0.30179 0.510563,-0.30179 0.208773,0 0.347266,0.07648 l -0.07648,0.173633 q -0.138493,-0.06408 -0.254248,-0.06408 -0.494027,0 -0.494027,0.985986 0,0.977718 0.494027,0.977718 0.146761,0 0.318327,-0.06614 v 0.165364 q -0.06821,0.03721 -0.167432,0.05788 -0.09922,0.02067 -0.171566,0.02067 z"
         style="font-style:normal;font-variant:normal;font-weight:normal;font-stretch:normal;font-size:4.23333311px;font-family:'Open Sans Condensed';-inkscape-font-specification:'Open Sans Condensed, ';fill:#dfddfe;fill-opacity:1;stroke-width:0.26458332"
         id="path433"
         inkscape:connector-curvature="0" />
    </g>
    <g
       aria-label="g"
       style="font-style:normal;font-variant:normal;font-weight:normal;font-stretch:normal;font-size:4.23333311px;line-height:1.25;font-family:'Open Sans Condensed';-inkscape-font-specification:'Open Sans Condensed, ';letter-spacing:0px;word-spacing:0px;fill:#dfddfe;fill-opacity:1;stroke:none;stroke-width:0.26458332"
       id="text3749-1">
      <path
         d="m 24.335931,53.757605 v 0.138493 l -0.305924,0.03514 q 0.06201,0.08062 0.101286,0.231511 0.03927,0.148828 0.03927,0.305924 0,0.326595 -0.148828,0.529167 -0.146761,0.202571 -0.388607,0.202571 h -0.04961 l -0.04341,-0.0041 q -0.09922,0.07028 -0.157096,0.14056 -0.05581,0.07028 -0.05581,0.163298 0,0.09508 0.07441,0.148828 0.07441,0.05168 0.200504,0.05168 h 0.14056 q 0.299723,0 0.465088,0.155029 0.165364,0.15503 0.165364,0.448552 0,0.328662 -0.223242,0.520898 -0.221175,0.192237 -0.584977,0.192237 -0.303857,0 -0.467155,-0.15503 -0.163297,-0.152962 -0.163297,-0.44235 0,-0.21084 0.107487,-0.361735 0.107487,-0.148828 0.33693,-0.235645 -0.103353,-0.04548 -0.167432,-0.12609 -0.06201,-0.08062 -0.06201,-0.192236 0,-0.101286 0.06614,-0.179834 0.06821,-0.08062 0.192237,-0.171566 -0.171566,-0.07855 -0.260449,-0.254248 -0.08682,-0.1757 -0.08682,-0.413412 0,-0.3576 0.150895,-0.564306 0.150896,-0.206706 0.413412,-0.206706 0.14056,0 0.235644,0.04341 z m -1.207161,2.645834 q 0,0.212906 0.109554,0.332796 0.111621,0.119889 0.334863,0.119889 0.276986,0 0.438216,-0.144694 0.163298,-0.144694 0.163298,-0.396875 0,-0.202572 -0.111621,-0.314193 -0.109554,-0.109554 -0.320394,-0.109554 h -0.144694 q -0.202572,0 -0.33693,0.14056 -0.132292,0.142627 -0.132292,0.372071 z m 0.121956,-1.914095 q 0,0.274918 0.101286,0.417545 0.101286,0.14056 0.268718,0.14056 0.359668,0 0.359668,-0.578776 0,-0.279053 -0.09302,-0.436149 -0.09095,-0.157096 -0.26665,-0.157096 -0.179834,0 -0.274919,0.16123 -0.09509,0.161231 -0.09509,0.452686 z"
         style="font-style:normal;font-variant:normal;font-weight:normal;font-stretch:normal;font-size:4.23333311px;font-family:'Open Sans Condensed';-inkscape-font-specification:'Open Sans Condensed, ';fill:#dfddfe;fill-opacity:1;stroke-width:0.26458332"
         id="path430"
         inkscape:connector-curvature="0" />
    </g>
    <g
       aria-label="c"
       style="font-style:normal;font-variant:normal;font-weight:normal;font-stretch:normal;font-size:4.23333311px;line-height:1.25;font-family:'Open Sans Condensed';-inkscape-font-specification:'Open Sans Condensed, ';letter-spacing:0px;word-spacing:0px;fill:#dfddfe;fill-opacity:1;stroke:none;stroke-width:0.26458332"
       id="text3753-1">
      <path
         d="m 29.67091,56.041704 q -0.336931,0 -0.508496,-0.291456 -0.169499,-0.293522 -0.169499,-0.859895 0,-0.574642 0.171566,-0.874365 0.173633,-0.301791 0.510563,-0.301791 0.208773,0 0.347265,0.07648 l -0.07648,0.173633 q -0.138493,-0.06408 -0.254248,-0.06408 -0.494026,0 -0.494026,0.985987 0,0.977718 0.494026,0.977718 0.146761,0 0.318327,-0.06615 v 0.165364 q -0.06821,0.03721 -0.167432,0.05788 -0.09922,0.02067 -0.171565,0.02067 z"
         style="font-style:normal;font-variant:normal;font-weight:normal;font-stretch:normal;font-size:4.23333311px;font-family:'Open Sans Condensed';-inkscape-font-specification:'Open Sans Condensed, ';fill:#dfddfe;fill-opacity:1;stroke-width:0.26458332"
         id="path427"
         inkscape:connector-curvature="0" />
    </g>
    <g
       aria-label="e"
       style="font-style:normal;font-variant:normal;font-weight:normal;font-stretch:normal;font-size:4.23333311px;line-height:1.25;font-family:'Open Sans Condensed';-inkscape-font-specification:'Open Sans Condensed, ';letter-spacing:0px;word-spacing:0px;fill:#dfddfe;fill-opacity:1;stroke:none;stroke-width:0.26458332"
       id="text3757-4">
      <path
         d="m 35.126845,55.908067 q -0.355534,0 -0.54777,-0.30179 -0.19017,-0.303858 -0.19017,-0.845427 0,-0.574642 0.169499,-0.876432 0.171566,-0.303857 0.49196,-0.303857 0.279052,0 0.440283,0.26665 0.16123,0.264583 0.16123,0.715202 v 0.181901 H 34.58941 q 0.0041,0.489892 0.138493,0.733805 0.134358,0.243913 0.40721,0.243913 0.21084,0 0.444417,-0.138493 v 0.190169 q -0.214974,0.134359 -0.452685,0.134359 z m -0.08888,-2.149739 q -0.405143,0 -0.444417,0.808219 h 0.861963 q 0,-0.370003 -0.113688,-0.589111 -0.111621,-0.219108 -0.303858,-0.219108 z"
         style="font-style:normal;font-variant:normal;font-weight:normal;font-stretch:normal;font-size:4.23333311px;font-family:'Open Sans Condensed';-inkscape-font-specification:'Open Sans Condensed, ';fill:#dfddfe;fill-opacity:1;stroke-width:0.26458332"
         id="path424"
         inkscape:connector-curvature="0" />
    </g>
    <g
       aria-label="g"
       style="font-style:normal;font-variant:normal;font-weight:normal;font-stretch:normal;font-size:4.23333311px;line-height:1.25;font-family:'Open Sans Condensed';-inkscape-font-specification:'Open Sans Condensed, ';letter-spacing:0px;word-spacing:0px;fill:#dfddfe;fill-opacity:1;stroke:none;stroke-width:0.26458332"
       id="text3761-4">
      <path
         d="m 41.723987,53.663108 v 0.138493 l -0.305924,0.03514 q 0.06201,0.08062 0.101286,0.231511 0.03927,0.148828 0.03927,0.305924 0,0.326595 -0.148828,0.529167 -0.146762,0.202572 -0.388607,0.202572 h -0.04961 l -0.04341,-0.0041 q -0.09922,0.07028 -0.157096,0.14056 -0.05581,0.07028 -0.05581,0.163298 0,0.09509 0.07441,0.148828 0.07441,0.05168 0.200505,0.05168 h 0.14056 q 0.299723,0 0.465088,0.15503 0.165364,0.155029 0.165364,0.448551 0,0.328662 -0.223242,0.520899 -0.221175,0.192236 -0.584977,0.192236 -0.303857,0 -0.467155,-0.155029 -0.163298,-0.152963 -0.163298,-0.442351 0,-0.21084 0.107487,-0.361735 0.107487,-0.148828 0.336931,-0.235644 -0.103353,-0.04548 -0.167432,-0.126091 -0.06201,-0.08062 -0.06201,-0.192236 0,-0.101286 0.06615,-0.179834 0.06821,-0.08062 0.192237,-0.171566 -0.171566,-0.07855 -0.26045,-0.254248 -0.08682,-0.1757 -0.08682,-0.413411 0,-0.357601 0.150895,-0.564307 0.150895,-0.206706 0.413412,-0.206706 0.140559,0 0.235644,0.04341 z m -1.207161,2.645833 q 0,0.212907 0.109554,0.332796 0.111621,0.119889 0.334863,0.119889 0.276986,0 0.438216,-0.144694 0.163298,-0.144694 0.163298,-0.396875 0,-0.202571 -0.111621,-0.314192 -0.109554,-0.109554 -0.320394,-0.109554 h -0.144694 q -0.202572,0 -0.33693,0.14056 -0.132292,0.142627 -0.132292,0.37207 z m 0.121956,-1.914095 q 0,0.274919 0.101286,0.417545 0.101286,0.14056 0.268717,0.14056 0.359668,0 0.359668,-0.578776 0,-0.279052 -0.09302,-0.436149 -0.09095,-0.157096 -0.266651,-0.157096 -0.179834,0 -0.274918,0.16123 -0.09508,0.161231 -0.09508,0.452686 z"
         style="font-style:normal;font-variant:normal;font-weight:normal;font-stretch:normal;font-size:4.23333311px;font-family:'Open Sans Condensed';-inkscape-font-specification:'Open Sans Condensed, ';fill:#dfddfe;fill-opacity:1;stroke-width:0.26458332"
         id="path421"
         inkscape:connector-curvature="0" />
    </g>
    <g
       aria-label="b"
       style="font-style:normal;font-variant:normal;font-weight:normal;font-stretch:normal;font-size:4.23333311px;line-height:1.25;font-family:'Open Sans Condensed';-inkscape-font-specification:'Open Sans Condensed, ';letter-spacing:0px;word-spacing:0px;fill:#dfddfe;fill-opacity:1;stroke:none;stroke-width:0.26458332"
       id="text3765-9">
      <path
         d="m 46.865531,53.762124 q 0.657325,0 0.657325,1.155485 0,0.570508 -0.163298,0.870231 -0.163297,0.297656 -0.471289,0.297656 -0.16123,0 -0.293522,-0.08888 -0.132292,-0.08888 -0.219108,-0.262516 h -0.01654 l -0.02687,0.310058 H 46.171 v -3.216341 h 0.196371 v 0.998389 l -0.0083,0.270784 h 0.01654 q 0.177767,-0.334863 0.489892,-0.334863 z m -0.0083,0.181901 q -0.258382,0 -0.374137,0.227376 -0.115755,0.227377 -0.115755,0.746208 v 0.05168 q 0,0.938444 0.49816,0.938444 0.227377,0 0.338998,-0.241845 0.113688,-0.241846 0.113688,-0.748275 0,-0.485758 -0.109554,-0.729671 -0.109554,-0.243913 -0.3514,-0.243913 z"
         style="font-style:normal;font-variant:normal;font-weight:normal;font-stretch:normal;font-size:4.23333311px;font-family:'Open Sans Condensed';-inkscape-font-specification:'Open Sans Condensed, ';fill:#dfddfe;fill-opacity:1;stroke-width:0.26458332"
         id="path418"
         inkscape:connector-curvature="0" />
    </g>
    <g
       aria-label="c"
       style="font-style:normal;font-variant:normal;font-weight:normal;font-stretch:normal;font-size:4.23333311px;line-height:1.25;font-family:'Open Sans Condensed';-inkscape-font-specification:'Open Sans Condensed, ';letter-spacing:0px;word-spacing:0px;fill:#dfddfe;fill-opacity:1;stroke:none;stroke-width:0.26458332"
       id="text3769-7">
      <path
         d="m 52.734403,55.893106 q -0.33693,0 -0.508496,-0.291455 -0.169498,-0.293522 -0.169498,-0.859896 0,-0.574642 0.171565,-0.874365 0.173633,-0.301791 0.510564,-0.301791 0.208772,0 0.347265,0.07648 l -0.07648,0.173632 q -0.138493,-0.06408 -0.254248,-0.06408 -0.494027,0 -0.494027,0.985986 0,0.977718 0.494027,0.977718 0.146761,0 0.318327,-0.06615 v 0.165365 q -0.06821,0.03721 -0.167432,0.05788 -0.09922,0.02067 -0.171566,0.02067 z"
         style="font-style:normal;font-variant:normal;font-weight:normal;font-stretch:normal;font-size:4.23333311px;font-family:'Open Sans Condensed';-inkscape-font-specification:'Open Sans Condensed, ';fill:#dfddfe;fill-opacity:1;stroke-width:0.26458332"
         id="path415"
         inkscape:connector-curvature="0" />
    </g>
    <g
       aria-label="d"
       style="font-style:normal;font-variant:normal;font-weight:normal;font-stretch:normal;font-size:4.23333311px;line-height:1.25;font-family:'Open Sans Condensed';-inkscape-font-specification:'Open Sans Condensed, ';letter-spacing:0px;word-spacing:0px;fill:#dfddfe;fill-opacity:1;stroke:none;stroke-width:0.26458332"
       id="text3773-0"
       transform="translate(0.52916667)">
      <path
         d="m 57.748662,55.962602 q -0.65319,0 -0.65319,-1.159619 0,-0.570508 0.163298,-0.868164 0.163297,-0.299723 0.481624,-0.299723 0.150895,0 0.285254,0.08682 0.136426,0.08682 0.217041,0.239779 h 0.01654 l -0.0083,-0.250114 V 52.70492 H 58.4473 v 3.216341 h -0.161231 l -0.01654,-0.314193 h -0.0186 q -0.08062,0.171566 -0.208773,0.264583 -0.128157,0.09095 -0.293522,0.09095 z m 0.0124,-0.171566 q 0.235644,0 0.361735,-0.217041 0.128157,-0.219108 0.128157,-0.642855 v -0.128157 q 0,-0.508496 -0.124023,-0.744141 -0.121957,-0.237711 -0.374138,-0.237711 -0.241845,0 -0.347265,0.254248 -0.10542,0.252181 -0.10542,0.731738 0,0.483691 0.109554,0.733805 0.109554,0.250114 0.3514,0.250114 z"
         style="font-style:normal;font-variant:normal;font-weight:normal;font-stretch:normal;font-size:4.23333311px;font-family:'Open Sans Condensed';-inkscape-font-specification:'Open Sans Condensed, ';fill:#dfddfe;fill-opacity:1;stroke-width:0.26458332"
         id="path412"
         inkscape:connector-curvature="0" />
    </g>
    <g
       aria-label="e"
       style="font-style:normal;font-variant:normal;font-weight:normal;font-stretch:normal;font-size:4.23333311px;line-height:1.25;font-family:'Open Sans Condensed';-inkscape-font-specification:'Open Sans Condensed, ';letter-spacing:0px;word-spacing:0px;fill:#dfddfe;fill-opacity:1;stroke:none;stroke-width:0.26458332"
       id="text3777-1"
       transform="translate(-1.0583333)">
      <path
         d="m 65.384894,55.893106 q -0.355534,0 -0.54777,-0.301791 -0.19017,-0.303857 -0.19017,-0.845426 0,-0.574642 0.169499,-0.876432 0.171566,-0.303858 0.49196,-0.303858 0.279052,0 0.440283,0.266651 0.16123,0.264583 0.16123,0.715202 v 0.181901 h -1.062467 q 0.0041,0.489892 0.138493,0.733805 0.134358,0.243913 0.40721,0.243913 0.21084,0 0.444417,-0.138493 v 0.190169 q -0.214974,0.134359 -0.452685,0.134359 z m -0.08888,-2.14974 q -0.405143,0 -0.444417,0.80822 h 0.861963 q 0,-0.370004 -0.113688,-0.589112 -0.111621,-0.219108 -0.303858,-0.219108 z"
         style="font-style:normal;font-variant:normal;font-weight:normal;font-stretch:normal;font-size:4.23333311px;font-family:'Open Sans Condensed';-inkscape-font-specification:'Open Sans Condensed, ';fill:#dfddfe;fill-opacity:1;stroke-width:0.26458332"
         id="path409"
         inkscape:connector-curvature="0" />
    </g>
    <g
       aria-label="f"
       style="font-style:normal;font-variant:normal;font-weight:normal;font-stretch:normal;font-size:4.23333311px;line-height:1.25;font-family:'Open Sans Condensed';-inkscape-font-specification:'Open Sans Condensed, ';letter-spacing:0px;word-spacing:0px;fill:#dfddfe;fill-opacity:1;stroke:none;stroke-width:0.26458332"
       id="text3781-8"
       transform="translate(-1.0583333)">
      <path
         d="m 72.670394,53.961596 h -0.3514 v 2.069124 h -0.194303 v -2.069124 h -0.285254 v -0.111622 l 0.285254,-0.08475 v -0.169499 q 0,-0.42788 0.101286,-0.615983 0.101285,-0.188102 0.351399,-0.188102 0.144694,0 0.262517,0.05168 l -0.06821,0.181901 q -0.109554,-0.05168 -0.198438,-0.05168 -0.101286,0 -0.152962,0.05994 -0.05168,0.05994 -0.07648,0.194303 -0.02481,0.134359 -0.02481,0.372071 v 0.188102 h 0.3514 z"
         style="font-style:normal;font-variant:normal;font-weight:normal;font-stretch:normal;font-size:4.23333311px;font-family:'Open Sans Condensed';-inkscape-font-specification:'Open Sans Condensed, ';fill:#dfddfe;fill-opacity:1;stroke-width:0.26458332"
         id="path406"
         inkscape:connector-curvature="0" />
    </g>
    <g
       aria-label="g"
       style="font-style:normal;font-variant:normal;font-weight:normal;font-stretch:normal;font-size:4.23333311px;line-height:1.25;font-family:'Open Sans Condensed';-inkscape-font-specification:'Open Sans Condensed, ';letter-spacing:0px;word-spacing:0px;fill:#dfddfe;fill-opacity:1;stroke:none;stroke-width:0.26458332"
       id="text3785-4"
       transform="translate(-1.0583333)">
      <path
         d="m 79.881099,53.721152 v 0.138493 l -0.305924,0.03514 q 0.06201,0.08062 0.101286,0.23151 0.03927,0.148828 0.03927,0.305925 0,0.326595 -0.148828,0.529166 -0.146761,0.202572 -0.388607,0.202572 h -0.04961 l -0.04341,-0.0041 q -0.09922,0.07028 -0.157096,0.14056 -0.05581,0.07028 -0.05581,0.163297 0,0.09508 0.07441,0.148828 0.07441,0.05168 0.200504,0.05168 h 0.14056 q 0.299723,0 0.465088,0.155029 0.165364,0.155029 0.165364,0.448552 0,0.328662 -0.223242,0.520898 -0.221175,0.192236 -0.584977,0.192236 -0.303857,0 -0.467155,-0.155029 -0.163297,-0.152962 -0.163297,-0.44235 0,-0.21084 0.107487,-0.361735 0.107487,-0.148828 0.33693,-0.235645 -0.103353,-0.04547 -0.167432,-0.12609 -0.06201,-0.08062 -0.06201,-0.192237 0,-0.101285 0.06615,-0.179834 0.06821,-0.08062 0.192237,-0.171565 -0.171566,-0.07855 -0.26045,-0.254248 -0.08682,-0.1757 -0.08682,-0.413412 0,-0.357601 0.150895,-0.564306 0.150895,-0.206706 0.413412,-0.206706 0.14056,0 0.235644,0.04341 z m -1.207161,2.645833 q 0,0.212907 0.109554,0.332797 0.111621,0.119889 0.334863,0.119889 0.276986,0 0.438216,-0.144694 0.163298,-0.144694 0.163298,-0.396875 0,-0.202572 -0.111621,-0.314193 -0.109554,-0.109554 -0.320394,-0.109554 H 79.14316 q -0.202572,0 -0.33693,0.14056 -0.132292,0.142627 -0.132292,0.37207 z m 0.121956,-1.914095 q 0,0.274919 0.101286,0.417546 0.101286,0.14056 0.268718,0.14056 0.359668,0 0.359668,-0.578776 0,-0.279053 -0.09302,-0.436149 -0.09095,-0.157097 -0.26665,-0.157097 -0.179834,0 -0.274919,0.161231 -0.09508,0.16123 -0.09508,0.452685 z"
         style="font-style:normal;font-variant:normal;font-weight:normal;font-stretch:normal;font-size:4.23333311px;font-family:'Open Sans Condensed';-inkscape-font-specification:'Open Sans Condensed, ';fill:#dfddfe;fill-opacity:1;stroke-width:0.26458332"
         id="path403"
         inkscape:connector-curvature="0" />
    </g>
    <g
       aria-label="a"
       style="font-style:normal;font-variant:normal;font-weight:normal;font-stretch:normal;font-size:4.23333311px;line-height:1.25;font-family:'Open Sans Condensed';-inkscape-font-specification:'Open Sans Condensed, ';letter-spacing:0px;word-spacing:0px;fill:#dfddfe;fill-opacity:1;stroke:none;stroke-width:0.26458332"
       id="text3789-0"
       transform="translate(-1.0583333)">
      <path
         d="m 85.994685,56.049526 -0.02481,-0.314192 h -0.0083 q -0.161231,0.355533 -0.487826,0.355533 -0.219108,0 -0.353466,-0.173632 -0.132292,-0.1757 -0.132292,-0.469222 0,-0.320394 0.192236,-0.506429 0.192237,-0.188103 0.539502,-0.204639 l 0.241846,-0.0124 v -0.186036 q 0,-0.314192 -0.07855,-0.456819 -0.07855,-0.144694 -0.260449,-0.144694 -0.192237,0 -0.392741,0.12609 l -0.08475,-0.155029 q 0.233578,-0.144694 0.489893,-0.144694 0.276986,0 0.398942,0.1757 0.121956,0.173633 0.121956,0.58291 v 1.527555 z m -0.47749,-0.12609 q 0.210839,0 0.326595,-0.206706 0.117822,-0.208773 0.117822,-0.589111 v -0.233578 l -0.233578,0.0124 q -0.270784,0.01447 -0.403076,0.150895 -0.130224,0.134358 -0.130224,0.394808 0,0.243912 0.08682,0.357601 0.08682,0.113688 0.235645,0.113688 z"
         style="font-style:normal;font-variant:normal;font-weight:normal;font-stretch:normal;font-size:4.23333311px;font-family:'Open Sans Condensed';-inkscape-font-specification:'Open Sans Condensed, ';fill:#dfddfe;fill-opacity:1;stroke-width:0.26458332"
         id="path400"
         inkscape:connector-curvature="0" />
    </g>
    <g
       aria-label="b"
       style="font-style:normal;font-variant:normal;font-weight:normal;font-stretch:normal;font-size:4.23333311px;line-height:1.25;font-family:'Open Sans Condensed';-inkscape-font-specification:'Open Sans Condensed, ';letter-spacing:0px;word-spacing:0px;fill:#dfddfe;fill-opacity:1;stroke:none;stroke-width:0.26458332"
       id="text3793-2"
       transform="translate(-1.0583333)">
      <path
         d="m 93.173324,53.820886 q 0.657324,0 0.657324,1.155485 0,0.570507 -0.163297,0.870231 -0.163298,0.297656 -0.471289,0.297656 -0.161231,0 -0.293522,-0.08888 -0.132292,-0.08888 -0.219109,-0.262516 h -0.01654 l -0.02687,0.310059 h -0.16123 V 52.88658 h 0.19637 v 0.998388 l -0.0083,0.270785 h 0.01654 q 0.177767,-0.334863 0.489893,-0.334863 z m -0.0083,0.181901 q -0.258382,0 -0.374138,0.227376 -0.115755,0.227376 -0.115755,0.746208 v 0.05168 q 0,0.938444 0.498161,0.938444 0.227376,0 0.338997,-0.241846 0.113689,-0.241845 0.113689,-0.748274 0,-0.485759 -0.109554,-0.729672 -0.109555,-0.243912 -0.3514,-0.243912 z"
         style="font-style:normal;font-variant:normal;font-weight:normal;font-stretch:normal;font-size:4.23333311px;font-family:'Open Sans Condensed';-inkscape-font-specification:'Open Sans Condensed, ';fill:#dfddfe;fill-opacity:1;stroke-width:0.26458332"
         id="path397"
         inkscape:connector-curvature="0" />
    </g>
    <g
       aria-label="c"
       style="font-style:normal;font-variant:normal;font-weight:normal;font-stretch:normal;font-size:4.23333311px;line-height:1.25;font-family:'Open Sans Condensed';-inkscape-font-specification:'Open Sans Condensed, ';letter-spacing:0px;word-spacing:0px;fill:#dfddfe;fill-opacity:1;stroke:none;stroke-width:0.26458332"
       id="text3801-7"
       transform="translate(-1.0583333)">
      <path
         d="m 107.13457,55.868921 q -0.33694,0 -0.5085,-0.291455 -0.1695,-0.293523 -0.1695,-0.859896 0,-0.574642 0.17157,-0.874365 0.17363,-0.301791 0.51056,-0.301791 0.20877,0 0.34726,0.07648 l -0.0765,0.173633 q -0.13849,-0.06408 -0.25424,-0.06408 -0.49403,0 -0.49403,0.985987 0,0.977718 0.49403,0.977718 0.14676,0 0.31832,-0.06615 v 0.165364 q -0.0682,0.03721 -0.16743,0.05788 -0.0992,0.02067 -0.17156,0.02067 z"
         style="font-style:normal;font-variant:normal;font-weight:normal;font-stretch:normal;font-size:4.23333311px;font-family:'Open Sans Condensed';-inkscape-font-specification:'Open Sans Condensed, ';fill:#dfddfe;fill-opacity:1;stroke-width:0.26458332"
         id="path391"
         inkscape:connector-curvature="0" />
    </g>
    <flowRoot
       xml:space="preserve"
       id="flowRoot4810"
       style="font-style:normal;font-variant:normal;font-weight:normal;font-stretch:normal;font-size:21.33333397px;line-height:1.25;font-family:'Times New Roman';-inkscape-font-specification:'Times New Roman, ';letter-spacing:0px;word-spacing:0px;fill:#000000;fill-opacity:1;stroke:none"
       transform="matrix(0.26458333,0,0,0.26458333,11.681605,47.432707)"><flowRegion
         id="flowRegion4812"><rect
           id="rect4814"
           width="449"
           height="67"
           x="-11.150951"
           y="-99.753372" /></flowRegion><flowPara
         id="flowPara4816" /></flowRoot>    <flowRoot
       xml:space="preserve"
       id="flowRoot377"
       style="font-style:normal;font-variant:normal;font-weight:normal;font-stretch:normal;font-size:21.33333397px;line-height:1.25;font-family:'Times New Roman';-inkscape-font-specification:'Times New Roman, ';letter-spacing:0px;word-spacing:0px;fill:#000000;fill-opacity:1;stroke:none"
       transform="matrix(0.26458333,0,0,0.26458333,11.681605,47.397567)"><flowRegion
         id="flowRegion379"><rect
           id="rect381"
           width="535"
           height="156"
           x="-27.15094"
           y="-48.620258" /></flowRegion><flowPara
         id="flowPara383" /></flowRoot>    <g
       aria-label="h"
       style="font-style:normal;font-variant:normal;font-weight:normal;font-stretch:normal;font-size:5.64444447px;line-height:1.25;font-family:'Times New Roman';-inkscape-font-specification:'Times New Roman, ';letter-spacing:0px;word-spacing:0px;fill:#dfddfe;fill-opacity:1;stroke:none;stroke-width:0.26458332"
       id="text498">
      <path
         d="m 99.53713,56.042271 v -1.546159 q 0,-0.303858 -0.08062,-0.429948 -0.07855,-0.128158 -0.258382,-0.128158 -0.237711,0 -0.357601,0.21084 -0.119889,0.21084 -0.119889,0.665593 v 1.227832 h -0.19637 V 52.82593 h 0.19637 v 1.043864 q 0,0.142627 -0.0083,0.237711 h 0.01654 q 0.06615,-0.167431 0.198438,-0.258382 0.134358,-0.09302 0.279053,-0.09302 0.285253,0 0.405143,0.186036 0.119889,0.186035 0.119889,0.553971 v 1.546159 z"
         style="font-style:normal;font-variant:normal;font-weight:normal;font-stretch:normal;font-size:4.23333311px;font-family:'Open Sans Condensed';-inkscape-font-specification:'Open Sans Condensed, ';fill:#dfddfe;fill-opacity:1;stroke-width:0.26458332"
         id="path1326"
         inkscape:connector-curvature="0" />
    </g>
    <g
       aria-label="...."
       style="font-style:normal;font-variant:normal;font-weight:normal;font-stretch:normal;font-size:4.23333311px;line-height:1.25;font-family:'Times New Roman';-inkscape-font-specification:'Times New Roman, ';letter-spacing:0px;word-spacing:0px;fill:#dfddfe;fill-opacity:1;stroke:none;stroke-width:0.26458332"
       id="text1307">
      <path
         d="m 108.27871,49.884559 q 0.0971,0 0.1633,0.06821 0.0661,0.06615 0.0661,0.16123 0,0.09508 -0.0682,0.163298 -0.0662,0.06615 -0.16123,0.06615 -0.0951,0 -0.1633,-0.06615 -0.0661,-0.06821 -0.0661,-0.163298 0,-0.09715 0.0661,-0.163297 0.0682,-0.06615 0.1633,-0.06615 z"
         style="font-size:4.23333311px;fill:#dfddfe;fill-opacity:1;stroke-width:0.26458332"
         id="path1317"
         inkscape:connector-curvature="0" />
      <path
         d="m 109.33704,49.884559 q 0.0971,0 0.1633,0.06821 0.0662,0.06615 0.0662,0.16123 0,0.09508 -0.0682,0.163298 -0.0661,0.06615 -0.16123,0.06615 -0.0951,0 -0.1633,-0.06615 -0.0661,-0.06821 -0.0661,-0.163298 0,-0.09715 0.0661,-0.163297 0.0682,-0.06615 0.1633,-0.06615 z"
         style="font-size:4.23333311px;fill:#dfddfe;fill-opacity:1;stroke-width:0.26458332"
         id="path1319"
         inkscape:connector-curvature="0" />
      <path
         d="m 110.39538,49.884559 q 0.0971,0 0.16329,0.06821 0.0661,0.06615 0.0661,0.16123 0,0.09508 -0.0682,0.163298 -0.0662,0.06615 -0.16123,0.06615 -0.0951,0 -0.1633,-0.06615 -0.0661,-0.06821 -0.0661,-0.163298 0,-0.09715 0.0661,-0.163297 0.0682,-0.06615 0.1633,-0.06615 z"
         style="font-size:4.23333311px;fill:#dfddfe;fill-opacity:1;stroke-width:0.26458332"
         id="path1321"
         inkscape:connector-curvature="0" />
      <path
         d="m 111.45371,49.884559 q 0.0971,0 0.1633,0.06821 0.0661,0.06615 0.0661,0.16123 0,0.09508 -0.0682,0.163298 -0.0662,0.06615 -0.16123,0.06615 -0.0951,0 -0.1633,-0.06615 -0.0661,-0.06821 -0.0661,-0.163298 0,-0.09715 0.0661,-0.163297 0.0682,-0.06615 0.1633,-0.06615 z"
         style="font-size:4.23333311px;fill:#dfddfe;fill-opacity:1;stroke-width:0.26458332"
         id="path1323"
         inkscape:connector-curvature="0" />
    </g>
    <flowRoot
       xml:space="preserve"
       id="flowRoot1309"
       style="font-style:normal;font-variant:normal;font-weight:normal;font-stretch:normal;font-size:21.33333397px;line-height:1.25;font-family:'Times New Roman';-inkscape-font-specification:'Times New Roman, ';letter-spacing:0px;word-spacing:0px;fill:#000000;fill-opacity:1;stroke:none"
       transform="matrix(0.26458333,0,0,0.26458333,11.681605,47.397567)"><flowRegion
         id="flowRegion1311"><rect
           id="rect1313"
           width="412"
           height="78"
           x="-16.15094"
           y="-19.620258" /></flowRegion><flowPara
         id="flowPara1315" /></flowRoot>    <g
       aria-label="1   2   3   4   5   6   7   8   9  10  11  12  13  14  15  16...."
       style="font-style:normal;font-variant:normal;font-weight:normal;font-stretch:normal;font-size:7.90222216px;line-height:1.25;font-family:'Open Sans Condensed';-inkscape-font-specification:'Open Sans Condensed, ';letter-spacing:0px;word-spacing:0px;fill:#dfddfe;fill-opacity:1;stroke:none;stroke-width:0.26458332"
       id="text4998-2-0">
      <path
         d="m -108.32131,75.626411 h -0.37042 v -4.147894 q 0,-0.505465 0.0309,-1.091958 -0.081,0.108038 -0.37813,0.405143 l -0.48232,0.43987 -0.19678,-0.243086 1.0881,-1.003212 h 0.30868 z"
         style="fill:#dfddfe;fill-opacity:1;stroke-width:0.26458332"
         id="path6840"
         inkscape:connector-curvature="0" />
      <path
         d="m -99.87504,75.626411 h -2.52732 v -0.300963 l 1.13826,-1.720894 q 0.52475,-0.798711 0.70225,-1.281024 0.18135,-0.482314 0.18135,-1.076524 0,-0.455304 -0.23537,-0.725399 -0.23537,-0.270096 -0.64052,-0.270096 -0.26623,0 -0.46687,0.08103 -0.19679,0.07717 -0.39743,0.235369 l -0.2045,-0.289388 q 0.27009,-0.204501 0.51704,-0.289388 0.2508,-0.08489 0.57492,-0.08489 0.58263,0 0.90674,0.362699 0.32412,0.3627 0.32412,0.980061 0,0.424436 -0.0965,0.798711 -0.0926,0.374275 -0.26624,0.733116 -0.16977,0.358841 -0.5672,0.933759 l -1.03794,1.535686 v 0.03087 h 2.09517 z"
         style="fill:#dfddfe;fill-opacity:1;stroke-width:0.26458332"
         id="path6842"
         inkscape:connector-curvature="0" />
      <path
         d="m -92.393395,71.239289 q 0,0.528616 -0.227652,0.899032 -0.227652,0.366558 -0.686814,0.532474 v 0.03087 q 0.474596,0.10418 0.736975,0.474597 0.266237,0.366558 0.266237,0.926041 0,0.733117 -0.374275,1.169128 -0.370417,0.432153 -1.010929,0.432153 -0.648229,0 -1.064948,-0.204501 v -0.416719 q 0.486172,0.281671 1.064948,0.281671 0.470738,0 0.733116,-0.339549 0.262379,-0.343407 0.262379,-0.937617 0,-0.563342 -0.304822,-0.883598 -0.304822,-0.320256 -0.902891,-0.320256 H -94.1876 V 72.52803 h 0.30868 q 0.493889,0 0.798711,-0.343407 0.308681,-0.347265 0.308681,-0.910607 0,-0.482314 -0.219935,-0.756268 -0.216077,-0.273954 -0.609644,-0.273954 -0.266237,0 -0.478455,0.08875 -0.20836,0.08875 -0.470738,0.331832 l -0.235369,-0.246945 q 0.285529,-0.277812 0.563342,-0.393568 0.281671,-0.119613 0.613503,-0.119613 0.555625,0 0.883598,0.366558 0.331831,0.366558 0.331831,0.968485 z"
         style="fill:#dfddfe;fill-opacity:1;stroke-width:0.26458332"
         id="path6844"
         inkscape:connector-curvature="0" />
      <path
         d="m -84.410144,74.345387 h -0.601927 v 1.281024 h -0.370417 v -1.281024 h -1.944687 v -0.324114 l 1.848224,-4.101593 h 0.46688 v 4.078442 h 0.601927 z m -0.972344,-0.347265 v -2.724106 q 0,-0.470738 0.03087,-0.918325 h -0.02315 l -0.285529,0.725399 -1.281025,2.917032 z"
         style="fill:#dfddfe;fill-opacity:1;stroke-width:0.26458332"
         id="path6846"
         inkscape:connector-curvature="0" />
      <path
         d="m -78.452609,72.585908 q -0.393568,0 -0.798711,0.115755 l -0.189067,-0.243086 0.165916,-2.473303 h 1.909961 v 0.3627 h -1.597422 l -0.138906,1.983273 q 0.347266,-0.07717 0.67138,-0.07717 0.632795,0 1.003212,0.420578 0.370417,0.420577 0.370417,1.157552 0,0.85273 -0.405144,1.362053 -0.405143,0.509323 -1.080381,0.509323 -0.601928,0 -0.941476,-0.212218 v -0.424436 q 0.424436,0.297105 0.926042,0.297105 0.513181,0 0.814144,-0.420577 0.300964,-0.420578 0.300964,-1.095816 0,-0.632795 -0.270095,-0.945334 -0.270096,-0.316398 -0.740834,-0.316399 z"
         style="fill:#dfddfe;fill-opacity:1;stroke-width:0.26458332"
         id="path6848"
         inkscape:connector-curvature="0" />
      <path
         d="m -71.866137,73.222562 q 0,-1.693885 0.41286,-2.504171 0.412861,-0.814145 1.223147,-0.814145 0.297105,0 0.490031,0.08875 v 0.370417 q -0.223794,-0.09646 -0.520899,-0.09646 -0.555625,0 -0.872022,0.640512 -0.31254,0.636654 -0.351125,1.859801 h 0.03087 q 0.13119,-0.293247 0.358842,-0.459163 0.227652,-0.165915 0.524757,-0.165915 0.524756,0 0.82572,0.466879 0.304822,0.466879 0.304822,1.284883 0,0.845013 -0.320256,1.327326 -0.320256,0.482314 -0.864306,0.482314 -0.605785,0 -0.926041,-0.636654 -0.316398,-0.636654 -0.316398,-1.844366 z m 1.250156,2.11832 q 0.381993,0 0.586494,-0.354983 0.2045,-0.354982 0.2045,-1.072665 0,-0.686814 -0.200642,-1.049514 -0.200642,-0.366558 -0.598069,-0.366558 -0.38585,0 -0.621219,0.312539 -0.231511,0.312539 -0.231511,0.794853 0,0.482313 0.108039,0.899032 0.111896,0.41286 0.300963,0.625078 0.192926,0.212218 0.451445,0.212218 z"
         style="fill:#dfddfe;fill-opacity:1;stroke-width:0.26458332"
         id="path6850"
         inkscape:connector-curvature="0" />
      <path
         d="m -63.890604,75.626411 1.751762,-5.278437 h -2.284236 v -0.3627 h 2.666228 v 0.316398 l -1.740186,5.324739 z"
         style="fill:#dfddfe;fill-opacity:1;stroke-width:0.26458332"
         id="path6852"
         inkscape:connector-curvature="0" />
      <path
         d="m -55.444334,69.904246 q 0.532474,0 0.856589,0.347265 0.327973,0.343407 0.327973,0.949193 0,0.933759 -0.926042,1.485525 0.412861,0.277813 0.617361,0.493889 0.204501,0.216076 0.316398,0.474596 0.111897,0.254662 0.111897,0.574918 0,0.644371 -0.358842,1.061089 -0.354982,0.412861 -0.906749,0.412861 -0.59421,0 -0.972343,-0.393568 -0.378134,-0.397426 -0.378134,-1.03408 0,-0.486172 0.208359,-0.864306 0.212218,-0.381992 0.736975,-0.725399 -0.814145,-0.625078 -0.814145,-1.470091 0,-0.582635 0.327973,-0.945334 0.331832,-0.366558 0.85273,-0.366558 z m -0.918324,4.379405 q 0,0.486172 0.254661,0.779418 0.254662,0.293247 0.67138,0.293247 0.409002,0 0.652088,-0.304822 0.246944,-0.308681 0.246944,-0.841155 0,-0.686814 -0.798711,-1.23858 l -0.189066,-0.127331 q -0.46688,0.300963 -0.652088,0.625078 -0.185208,0.320256 -0.185208,0.814145 z m 0.910607,-4.03214 q -0.362699,0 -0.574917,0.25852 -0.20836,0.25852 -0.20836,0.721541 0,0.397426 0.173633,0.694531 0.173633,0.297105 0.609644,0.586493 0.420578,-0.250803 0.609644,-0.5672 0.192926,-0.316398 0.192926,-0.713824 0,-0.463021 -0.212218,-0.721541 -0.20836,-0.25852 -0.590352,-0.25852 z"
         style="fill:#dfddfe;fill-opacity:1;stroke-width:0.26458332"
         id="path6854"
         inkscape:connector-curvature="0" />
      <path
         d="m -46.681662,72.315813 q 0,1.686167 -0.424436,2.538897 -0.420577,0.848872 -1.234722,0.848872 -0.142765,0 -0.304822,-0.02701 -0.158199,-0.02701 -0.219935,-0.05788 v -0.370416 q 0.212218,0.0926 0.555625,0.0926 0.559484,0 0.883598,-0.648229 0.324115,-0.648229 0.3627,-1.848225 h -0.03087 q -0.131189,0.293246 -0.358841,0.459162 -0.227652,0.165916 -0.524757,0.165916 -0.528616,0 -0.829579,-0.474596 -0.300964,-0.474597 -0.300964,-1.281025 0,-0.841154 0.324115,-1.323467 0.327973,-0.486172 0.906749,-0.486172 0.590352,0 0.891315,0.625078 0.304822,0.621219 0.304822,1.786489 z m -1.219288,-2.048868 q -0.378134,0 -0.601927,0.358841 -0.219935,0.354983 -0.219935,1.072665 0,0.686815 0.200642,1.053373 0.200643,0.362699 0.598069,0.362699 0.385851,0 0.617361,-0.324114 0.235369,-0.327973 0.235369,-0.872023 0,-0.482313 -0.10418,-0.868164 -0.100321,-0.38585 -0.285529,-0.582634 -0.185209,-0.200643 -0.43987,-0.200643 z"
         style="fill:#dfddfe;fill-opacity:1;stroke-width:0.26458332"
         id="path6856"
         inkscape:connector-curvature="0" />
      <path
         d="m -41.322197,75.626411 h -0.370417 v -4.147894 q 0,-0.505465 0.03087,-1.091958 -0.08103,0.108038 -0.378134,0.405143 l -0.482313,0.43987 -0.196784,-0.243086 1.088099,-1.003212 h 0.30868 z"
         style="fill:#dfddfe;fill-opacity:1;stroke-width:0.26458332"
         id="path6858"
         inkscape:connector-curvature="0" />
      <path
         d="m -37.320922,72.798126 q 0,1.431506 -0.312539,2.168481 -0.308681,0.736975 -0.926042,0.736975 -0.652088,0 -0.945334,-0.679098 -0.289388,-0.682955 -0.289388,-2.226358 0,-2.89388 1.234722,-2.89388 0.640512,0 0.937617,0.717682 0.300964,0.717682 0.300964,2.176198 z m -2.079735,0 q 0,1.273307 0.200642,1.909961 0.204501,0.632795 0.640512,0.632795 0.845013,0 0.845013,-2.542756 0,-2.531181 -0.845013,-2.531181 -0.436011,0 -0.640512,0.625078 -0.200642,0.625079 -0.200642,1.906103 z"
         style="fill:#dfddfe;fill-opacity:1;stroke-width:0.26458332"
         id="path6860"
         inkscape:connector-curvature="0" />
      <path
         d="m -32.030914,75.626411 h -0.370417 v -4.147894 q 0,-0.505465 0.03087,-1.091958 -0.08103,0.108038 -0.378133,0.405143 l -0.482314,0.43987 -0.196784,-0.243086 1.088099,-1.003212 h 0.308681 z"
         style="fill:#dfddfe;fill-opacity:1;stroke-width:0.26458332"
         id="path6862"
         inkscape:connector-curvature="0" />
      <path
         d="m -28.866936,75.626411 h -0.370416 v -4.147894 q 0,-0.505465 0.03087,-1.091958 -0.08103,0.108038 -0.378134,0.405143 l -0.482313,0.43987 -0.196784,-0.243086 1.088099,-1.003212 h 0.30868 z"
         style="fill:#dfddfe;fill-opacity:1;stroke-width:0.26458332"
         id="path6864"
         inkscape:connector-curvature="0" />
      <path
         d="m -22.739624,75.626411 h -0.370417 v -4.147894 q 0,-0.505465 0.03087,-1.091958 -0.08103,0.108038 -0.378133,0.405143 l -0.482314,0.43987 -0.196783,-0.243086 1.088099,-1.003212 h 0.30868 z"
         style="fill:#dfddfe;fill-opacity:1;stroke-width:0.26458332"
         id="path6866"
         inkscape:connector-curvature="0" />
      <path
         d="m -18.738357,75.626411 h -2.527322 v -0.300963 l 1.13826,-1.720894 q 0.524756,-0.798711 0.702248,-1.281024 0.18135,-0.482314 0.18135,-1.076524 0,-0.455304 -0.235369,-0.725399 -0.235369,-0.270096 -0.640512,-0.270096 -0.266237,0 -0.46688,0.08103 -0.196784,0.07717 -0.397426,0.235369 l -0.204501,-0.289388 q 0.270096,-0.204501 0.51704,-0.289388 0.250803,-0.08489 0.574918,-0.08489 0.582634,0 0.906749,0.362699 0.324114,0.3627 0.324114,0.980061 0,0.424436 -0.09646,0.798711 -0.0926,0.374275 -0.266237,0.733116 -0.169775,0.358841 -0.567201,0.933759 l -1.037938,1.535686 v 0.03087 h 2.095169 z"
         style="fill:#dfddfe;fill-opacity:1;stroke-width:0.26458332"
         id="path6868"
         inkscape:connector-curvature="0" />
      <path
         d="m -13.448341,75.626411 h -0.370417 v -4.147894 q 0,-0.505465 0.03087,-1.091958 -0.08103,0.108038 -0.378134,0.405143 l -0.482313,0.43987 -0.196784,-0.243086 1.088099,-1.003212 h 0.308681 z"
         style="fill:#dfddfe;fill-opacity:1;stroke-width:0.26458332"
         id="path6870"
         inkscape:connector-curvature="0" />
      <path
         d="m -9.574405,71.239289 q 0,0.528616 -0.2276519,0.899032 -0.2276521,0.366558 -0.6868141,0.532474 v 0.03087 q 0.474596,0.10418 0.7369747,0.474597 0.2662369,0.366558 0.2662369,0.926041 0,0.733117 -0.3742751,1.169128 -0.3704165,0.432153 -1.0109285,0.432153 -0.64823,0 -1.064948,-0.204501 v -0.416719 q 0.486172,0.281671 1.064948,0.281671 0.470737,0 0.733116,-0.339549 0.2623784,-0.343407 0.2623784,-0.937617 0,-0.563342 -0.3048224,-0.883598 -0.304822,-0.320256 -0.90289,-0.320256 h -0.28553 V 72.52803 h 0.308681 q 0.493889,0 0.798711,-0.343407 0.3086803,-0.347265 0.3086803,-0.910607 0,-0.482314 -0.2199353,-0.756268 -0.216076,-0.273954 -0.609644,-0.273954 -0.266237,0 -0.478455,0.08875 -0.208359,0.08875 -0.470737,0.331832 l -0.235369,-0.246945 q 0.285529,-0.277812 0.563342,-0.393568 0.281671,-0.119613 0.613502,-0.119613 0.555625,0 0.8835984,0.366558 0.3318316,0.366558 0.3318316,0.968485 z"
         style="fill:#dfddfe;fill-opacity:1;stroke-width:0.26458332"
         id="path6872"
         inkscape:connector-curvature="0" />
      <path
         d="m -4.1570586,75.626411 h -0.3704167 v -4.147894 q 0,-0.505465 0.030868,-1.091958 -0.081029,0.108038 -0.3781337,0.405143 l -0.4823133,0.43987 -0.1967839,-0.243086 1.088099,-1.003212 h 0.3086805 z"
         style="fill:#dfddfe;fill-opacity:1;stroke-width:0.26458332"
         id="path6874"
         inkscape:connector-curvature="0" />
      <path
         d="m 0.09116042,74.345387 h -0.60192708 v 1.281024 H -0.88118332 V 74.345387 H -2.8258708 v -0.324114 l 1.84822481,-4.101593 h 0.46687933 v 4.078442 h 0.60192708 z m -0.97234374,-0.347265 v -2.724106 q 0,-0.470738 0.0308681,-0.918325 h -0.023151 L -1.1589957,71.08109 -2.44002,73.998122 Z"
         style="fill:#dfddfe;fill-opacity:1;stroke-width:0.26458332"
         id="path6876"
         inkscape:connector-curvature="0" />
      <path
         d="M 5.1342241,75.626411 H 4.7638074 v -4.147894 q 0,-0.505465 0.030868,-1.091958 -0.081029,0.108038 -0.3781336,0.405143 l -0.4823134,0.43987 -0.1967838,-0.243086 1.0880989,-1.003212 h 0.3086806 z"
         style="fill:#dfddfe;fill-opacity:1;stroke-width:0.26458332"
         id="path6878"
         inkscape:connector-curvature="0" />
      <path
         d="m 7.7310021,72.585908 q -0.3935677,0 -0.7987109,0.115755 L 6.7432243,72.458577 6.9091401,69.985274 h 1.909961 v 0.3627 H 7.2216792 L 7.082773,72.331247 q 0.3472656,-0.07717 0.6713802,-0.07717 0.6327951,0 1.0032118,0.420578 0.3704166,0.420577 0.3704166,1.157552 0,0.85273 -0.4051432,1.362053 -0.4051432,0.509323 -1.0803819,0.509323 -0.6019271,0 -0.9414757,-0.212218 v -0.424436 q 0.4244357,0.297105 0.9260416,0.297105 0.5131815,0 0.814145,-0.420577 0.3009635,-0.420578 0.3009635,-1.095816 0,-0.632795 -0.2700955,-0.945334 Q 8.20174,72.585908 7.7310021,72.585908 Z"
         style="fill:#dfddfe;fill-opacity:1;stroke-width:0.26458332"
         id="path6880"
         inkscape:connector-curvature="0" />
      <path
         d="m 14.425514,75.626411 h -0.370416 v -4.147894 q 0,-0.505465 0.03087,-1.091958 -0.08103,0.108038 -0.378134,0.405143 l -0.482313,0.43987 -0.196784,-0.243086 1.088099,-1.003212 h 0.30868 z"
         style="fill:#dfddfe;fill-opacity:1;stroke-width:0.26458332"
         id="path6882"
         inkscape:connector-curvature="0" />
      <path
         d="m 15.99978,73.222562 q 0,-1.693885 0.412861,-2.504171 0.41286,-0.814145 1.223146,-0.814145 0.297105,0 0.490031,0.08875 v 0.370417 q -0.223794,-0.09646 -0.520899,-0.09646 -0.555625,0 -0.872022,0.640512 -0.312539,0.636654 -0.351124,1.859801 h 0.03087 q 0.131189,-0.293247 0.358841,-0.459163 0.227652,-0.165915 0.524757,-0.165915 0.524757,0 0.82572,0.466879 0.304822,0.466879 0.304822,1.284883 0,0.845013 -0.320256,1.327326 -0.320256,0.482314 -0.864305,0.482314 -0.605786,0 -0.926042,-0.636654 -0.316398,-0.636654 -0.316398,-1.844366 z m 1.250157,2.11832 q 0.381992,0 0.586493,-0.354983 0.204501,-0.354982 0.204501,-1.072665 0,-0.686814 -0.200643,-1.049514 -0.200642,-0.366558 -0.598068,-0.366558 -0.385851,0 -0.62122,0.312539 -0.23151,0.312539 -0.23151,0.794853 0,0.482313 0.108038,0.899032 0.111897,0.41286 0.300963,0.625078 0.192926,0.212218 0.451446,0.212218 z"
         style="fill:#dfddfe;fill-opacity:1;stroke-width:0.26458332"
         id="path6884"
         inkscape:connector-curvature="0" />
      <path
         d="m 19.291082,75.279146 q 0,-0.41286 0.300964,-0.41286 0.123472,0 0.212218,0.0926 0.08874,0.0926 0.08874,0.320256 0,0.219935 -0.08874,0.316397 -0.08875,0.0926 -0.212218,0.0926 -0.300964,0 -0.300964,-0.409002 z"
         style="fill:#dfddfe;fill-opacity:1;stroke-width:0.26458332"
         id="path6886"
         inkscape:connector-curvature="0" />
      <path
         d="m 20.927099,75.279146 q 0,-0.41286 0.300964,-0.41286 0.123472,0 0.212217,0.0926 0.08875,0.0926 0.08875,0.320256 0,0.219935 -0.08875,0.316397 -0.08875,0.0926 -0.212217,0.0926 -0.300964,0 -0.300964,-0.409002 z"
         style="fill:#dfddfe;fill-opacity:1;stroke-width:0.26458332"
         id="path6888"
         inkscape:connector-curvature="0" />
      <path
         d="m 22.563101,75.279146 q 0,-0.41286 0.300963,-0.41286 0.123472,0 0.212218,0.0926 0.08875,0.0926 0.08875,0.320256 0,0.219935 -0.08875,0.316397 -0.08875,0.0926 -0.212218,0.0926 -0.300963,0 -0.300963,-0.409002 z"
         style="fill:#dfddfe;fill-opacity:1;stroke-width:0.26458332"
         id="path6890"
         inkscape:connector-curvature="0" />
      <path
         d="m 24.199117,75.279146 q 0,-0.41286 0.300964,-0.41286 0.123472,0 0.212218,0.0926 0.08874,0.0926 0.08874,0.320256 0,0.219935 -0.08874,0.316397 -0.08875,0.0926 -0.212218,0.0926 -0.300964,0 -0.300964,-0.409002 z"
         style="fill:#dfddfe;fill-opacity:1;stroke-width:0.26458332"
         id="path6892"
         inkscape:connector-curvature="0" />
    </g>
    <g
       aria-label="c   c    g   c   e   g    b   c   d   e     f     g    a    b    h    c "
       style="font-style:normal;font-variant:normal;font-weight:normal;font-stretch:normal;font-size:7.90222216px;line-height:1.25;font-family:'Open Sans Condensed';-inkscape-font-specification:'Open Sans Condensed, ';letter-spacing:0px;word-spacing:0px;fill:#dfddfe;fill-opacity:1;stroke:none;stroke-width:0.26458332"
       id="text5010-6-4">
      <path
         d="m -108.53258,82.786223 q -0.62894,0 -0.94919,-0.544049 -0.3164,-0.547908 -0.3164,-1.605139 0,-1.072665 0.32026,-1.632149 0.32411,-0.563342 0.95305,-0.563342 0.38971,0 0.64823,0.142765 l -0.14277,0.324115 q -0.25852,-0.119614 -0.47459,-0.119614 -0.92219,0 -0.92219,1.840508 0,1.825074 0.92219,1.825074 0.27395,0 0.59421,-0.123473 V 82.6396 q -0.12734,0.06945 -0.31254,0.108038 -0.18521,0.03859 -0.32026,0.03859 z"
         style="fill:#dfddfe;fill-opacity:1;stroke-width:0.26458332"
         id="path6807"
         inkscape:connector-curvature="0" />
      <path
         d="m -101.63357,82.786223 q -0.62894,0 -0.94919,-0.544049 -0.3164,-0.547908 -0.3164,-1.605139 0,-1.072665 0.32026,-1.632149 0.32411,-0.563342 0.95305,-0.563342 0.38971,0 0.64823,0.142765 l -0.14277,0.324115 q -0.25852,-0.119614 -0.47459,-0.119614 -0.92219,0 -0.92219,1.840508 0,1.825074 0.92219,1.825074 0.27395,0 0.59421,-0.123473 V 82.6396 q -0.12733,0.06945 -0.31254,0.108038 -0.18521,0.03859 -0.32026,0.03859 z"
         style="fill:#dfddfe;fill-opacity:1;stroke-width:0.26458332"
         id="path6809"
         inkscape:connector-curvature="0" />
      <path
         d="m -92.137783,78.522573 v 0.25852 l -0.571059,0.0656 q 0.115755,0.150481 0.189066,0.432152 0.07331,0.277813 0.07331,0.571059 0,0.609645 -0.277812,0.987778 -0.273954,0.378134 -0.7254,0.378134 h -0.0926 l -0.08103,-0.0077 q -0.185208,0.131189 -0.293246,0.262378 -0.10418,0.13119 -0.10418,0.304822 0,0.177492 0.138906,0.277813 0.138907,0.09646 0.374276,0.09646 h 0.262378 q 0.559484,0 0.868164,0.289388 0.308681,0.289388 0.308681,0.837296 0,0.613502 -0.416719,0.972343 -0.41286,0.358841 -1.091957,0.358841 -0.567201,0 -0.872023,-0.289388 -0.304822,-0.285529 -0.304822,-0.82572 0,-0.393568 0.200642,-0.675239 0.200643,-0.277812 0.628937,-0.43987 -0.192925,-0.08489 -0.312539,-0.235368 -0.115755,-0.150482 -0.115755,-0.358842 0,-0.189066 0.123472,-0.33569 0.127331,-0.150481 0.358841,-0.320256 -0.320256,-0.146623 -0.486172,-0.474596 -0.162057,-0.327973 -0.162057,-0.771702 0,-0.667521 0.281671,-1.053372 0.281671,-0.385851 0.771701,-0.385851 0.262379,0 0.43987,0.08103 z m -2.253368,4.938889 q 0,0.397426 0.2045,0.62122 0.20836,0.223793 0.625079,0.223793 0.517039,0 0.818003,-0.270096 0.304822,-0.270095 0.304822,-0.740833 0,-0.378134 -0.208359,-0.586493 -0.204501,-0.204501 -0.598069,-0.204501 h -0.270095 q -0.378134,0 -0.628937,0.262379 -0.246944,0.266237 -0.246944,0.694531 z m 0.227651,-3.572978 q 0,0.513182 0.189067,0.779419 0.189067,0.262378 0.501606,0.262378 0.67138,0 0.67138,-1.080382 0,-0.520898 -0.173632,-0.814145 -0.169775,-0.293246 -0.497748,-0.293246 -0.33569,0 -0.513181,0.300963 -0.177492,0.300964 -0.177492,0.845013 z"
         style="fill:#dfddfe;fill-opacity:1;stroke-width:0.26458332"
         id="path6811"
         inkscape:connector-curvature="0" />
      <path
         d="m -85.952597,82.786223 q -0.628937,0 -0.949193,-0.544049 -0.316397,-0.547908 -0.316397,-1.605139 0,-1.072665 0.320256,-1.632149 0.324114,-0.563342 0.953051,-0.563342 0.389709,0 0.648229,0.142765 l -0.142765,0.324115 q -0.25852,-0.119614 -0.474596,-0.119614 -0.922183,0 -0.922183,1.840508 0,1.825074 0.922183,1.825074 0.273954,0 0.59421,-0.123473 V 82.6396 q -0.127331,0.06945 -0.312539,0.108038 -0.185208,0.03859 -0.320256,0.03859 z"
         style="fill:#dfddfe;fill-opacity:1;stroke-width:0.26458332"
         id="path6813"
         inkscape:connector-curvature="0" />
      <path
         d="m -78.941689,82.786223 q -0.663663,0 -1.022504,-0.563342 -0.354983,-0.5672 -0.354983,-1.578129 0,-1.072665 0.316398,-1.636007 0.320256,-0.567201 0.918325,-0.567201 0.520898,0 0.821861,0.497748 0.300964,0.493889 0.300964,1.335043 v 0.339549 h -1.983273 q 0.0077,0.914466 0.25852,1.36977 0.250803,0.455304 0.760126,0.455304 0.393568,0 0.829579,-0.25852 v 0.354982 q -0.401284,0.250803 -0.845013,0.250803 z m -0.165916,-4.012847 q -0.756267,0 -0.829579,1.508676 h 1.608998 q 0,-0.690673 -0.212218,-1.099674 -0.208359,-0.409002 -0.567201,-0.409002 z"
         style="fill:#dfddfe;fill-opacity:1;stroke-width:0.26458332"
         id="path6815"
         inkscape:connector-curvature="0" />
      <path
         d="m -70.391238,78.522573 v 0.25852 l -0.571059,0.0656 q 0.115756,0.150481 0.189067,0.432152 0.07331,0.277813 0.07331,0.571059 0,0.609645 -0.277813,0.987778 -0.273954,0.378134 -0.725399,0.378134 h -0.0926 l -0.08103,-0.0077 q -0.185208,0.131189 -0.293246,0.262378 -0.10418,0.13119 -0.10418,0.304822 0,0.177492 0.138906,0.277813 0.138906,0.09646 0.374275,0.09646 h 0.262379 q 0.559483,0 0.868164,0.289388 0.30868,0.289388 0.30868,0.837296 0,0.613502 -0.416718,0.972343 -0.41286,0.358841 -1.091958,0.358841 -0.5672,0 -0.872022,-0.289388 -0.304822,-0.285529 -0.304822,-0.82572 0,-0.393568 0.200642,-0.675239 0.200642,-0.277812 0.628937,-0.43987 -0.192926,-0.08489 -0.312539,-0.235368 -0.115756,-0.150482 -0.115756,-0.358842 0,-0.189066 0.123473,-0.33569 0.12733,-0.150481 0.358841,-0.320256 -0.320256,-0.146623 -0.486172,-0.474596 -0.162057,-0.327973 -0.162057,-0.771702 0,-0.667521 0.281671,-1.053372 0.281671,-0.385851 0.771701,-0.385851 0.262378,0 0.43987,0.08103 z m -2.253368,4.938889 q 0,0.397426 0.204501,0.62122 0.20836,0.223793 0.625078,0.223793 0.51704,0 0.818004,-0.270096 0.304822,-0.270095 0.304822,-0.740833 0,-0.378134 -0.20836,-0.586493 -0.2045,-0.204501 -0.598068,-0.204501 h -0.270096 q -0.378133,0 -0.628936,0.262379 -0.246945,0.266237 -0.246945,0.694531 z m 0.227652,-3.572978 q 0,0.513182 0.189067,0.779419 0.189067,0.262378 0.501606,0.262378 0.67138,0 0.67138,-1.080382 0,-0.520898 -0.173633,-0.814145 -0.169774,-0.293246 -0.497747,-0.293246 -0.33569,0 -0.513181,0.300963 -0.177492,0.300964 -0.177492,0.845013 z"
         style="fill:#dfddfe;fill-opacity:1;stroke-width:0.26458332"
         id="path6817"
         inkscape:connector-curvature="0" />
      <path
         d="m -62.504448,78.449261 q 1.227005,0 1.227005,2.156906 0,1.064948 -0.304822,1.624431 -0.304822,0.555625 -0.879739,0.555625 -0.300964,0 -0.547908,-0.165916 -0.246945,-0.165915 -0.409002,-0.49003 h -0.03087 l -0.05016,0.578776 h -0.300963 v -6.003837 h 0.366558 v 1.863659 l -0.01543,0.505465 h 0.03087 q 0.331832,-0.625079 0.914466,-0.625079 z m -0.01543,0.339549 q -0.482313,0 -0.69839,0.424436 -0.216076,0.424436 -0.216076,1.392921 v 0.09646 q 0,1.751763 0.9299,1.751763 0.424436,0 0.632795,-0.451446 0.212218,-0.451445 0.212218,-1.396779 0,-0.906749 -0.204501,-1.362053 -0.204501,-0.455304 -0.655946,-0.455304 z"
         style="fill:#dfddfe;fill-opacity:1;stroke-width:0.26458332"
         id="path6819"
         inkscape:connector-curvature="0" />
      <path
         d="m -54.837595,82.786223 q -0.628937,0 -0.949193,-0.544049 -0.316398,-0.547908 -0.316398,-1.605139 0,-1.072665 0.320256,-1.632149 0.324115,-0.563342 0.953052,-0.563342 0.389709,0 0.648229,0.142765 l -0.142765,0.324115 q -0.25852,-0.119614 -0.474596,-0.119614 -0.922183,0 -0.922183,1.840508 0,1.825074 0.922183,1.825074 0.273954,0 0.59421,-0.123473 V 82.6396 q -0.127331,0.06945 -0.312539,0.108038 -0.185209,0.03859 -0.320256,0.03859 z"
         style="fill:#dfddfe;fill-opacity:1;stroke-width:0.26458332"
         id="path6821"
         inkscape:connector-curvature="0" />
      <path
         d="m -47.992605,82.786223 q -1.219288,0 -1.219288,-2.164622 0,-1.064948 0.304822,-1.620573 0.304822,-0.559484 0.899032,-0.559484 0.281671,0 0.532474,0.162058 0.254662,0.162057 0.405143,0.447586 h 0.03087 l -0.01543,-0.466879 v -1.879093 h 0.366559 v 6.003837 h -0.300964 l -0.03087,-0.586493 h -0.03473 q -0.150481,0.320256 -0.389709,0.493889 -0.239227,0.169774 -0.547909,0.169774 z m 0.02315,-0.320256 q 0.43987,0 0.675239,-0.405143 0.239227,-0.409002 0.239227,-1.199996 v -0.239227 q 0,-0.949193 -0.23151,-1.389063 -0.227652,-0.443728 -0.69839,-0.443728 -0.451445,0 -0.648229,0.474596 -0.196784,0.470738 -0.196784,1.365912 0,0.90289 0.204501,1.36977 0.204501,0.466879 0.655946,0.466879 z"
         style="fill:#dfddfe;fill-opacity:1;stroke-width:0.26458332"
         id="path6823"
         inkscape:connector-curvature="0" />
      <path
         d="m -39.939902,82.786223 q -0.663663,0 -1.022504,-0.563342 -0.354983,-0.5672 -0.354983,-1.578129 0,-1.072665 0.316398,-1.636007 0.320256,-0.567201 0.918325,-0.567201 0.520898,0 0.821862,0.497748 0.300963,0.493889 0.300963,1.335043 v 0.339549 h -1.983272 q 0.0077,0.914466 0.25852,1.36977 0.250803,0.455304 0.760125,0.455304 0.393568,0 0.829579,-0.25852 v 0.354982 q -0.401284,0.250803 -0.845013,0.250803 z m -0.165915,-4.012847 q -0.756268,0 -0.829579,1.508676 h 1.608997 q 0,-0.690673 -0.212218,-1.099674 -0.208359,-0.409002 -0.5672,-0.409002 z"
         style="fill:#dfddfe;fill-opacity:1;stroke-width:0.26458332"
         id="path6825"
         inkscape:connector-curvature="0" />
      <path
         d="m -29.548941,78.846688 h -0.655946 v 3.862365 h -0.3627 v -3.862365 h -0.532474 v -0.20836 l 0.532474,-0.158199 v -0.316397 q 0,-0.798711 0.189067,-1.149835 0.189067,-0.351124 0.655946,-0.351124 0.270096,0 0.490031,0.09646 l -0.127331,0.339549 q -0.204501,-0.09646 -0.370417,-0.09646 -0.189067,0 -0.285529,0.111897 -0.09646,0.111897 -0.142765,0.3627 -0.0463,0.250803 -0.0463,0.694531 v 0.351124 h 0.655946 z"
         style="fill:#dfddfe;fill-opacity:1;stroke-width:0.26458332"
         id="path6827"
         inkscape:connector-curvature="0" />
      <path
         d="m -19.273741,78.522573 v 0.25852 l -0.571059,0.0656 q 0.115755,0.150481 0.189067,0.432152 0.07331,0.277813 0.07331,0.571059 0,0.609645 -0.277812,0.987778 -0.273954,0.378134 -0.725399,0.378134 h -0.0926 l -0.08103,-0.0077 q -0.185209,0.131189 -0.293247,0.262378 -0.10418,0.13119 -0.10418,0.304822 0,0.177492 0.138907,0.277813 0.138906,0.09646 0.374275,0.09646 h 0.262378 q 0.559484,0 0.868164,0.289388 0.308681,0.289388 0.308681,0.837296 0,0.613502 -0.416719,0.972343 -0.41286,0.358841 -1.091957,0.358841 -0.567201,0 -0.872023,-0.289388 -0.304822,-0.285529 -0.304822,-0.82572 0,-0.393568 0.200643,-0.675239 0.200642,-0.277812 0.628936,-0.43987 -0.192925,-0.08489 -0.312539,-0.235368 -0.115755,-0.150482 -0.115755,-0.358842 0,-0.189066 0.123472,-0.33569 0.127331,-0.150481 0.358841,-0.320256 -0.320256,-0.146623 -0.486172,-0.474596 -0.162057,-0.327973 -0.162057,-0.771702 0,-0.667521 0.281671,-1.053372 0.281671,-0.385851 0.771701,-0.385851 0.262379,0 0.43987,0.08103 z m -2.253368,4.938889 q 0,0.397426 0.204501,0.62122 0.208359,0.223793 0.625078,0.223793 0.51704,0 0.818003,-0.270096 0.304822,-0.270095 0.304822,-0.740833 0,-0.378134 -0.208359,-0.586493 -0.204501,-0.204501 -0.598069,-0.204501 h -0.270095 q -0.378134,0 -0.628937,0.262379 -0.246944,0.266237 -0.246944,0.694531 z m 0.227652,-3.572978 q 0,0.513182 0.189067,0.779419 0.189066,0.262378 0.501605,0.262378 0.671381,0 0.671381,-1.080382 0,-0.520898 -0.173633,-0.814145 -0.169774,-0.293246 -0.497748,-0.293246 -0.33569,0 -0.513181,0.300963 -0.177491,0.300964 -0.177491,0.845013 z"
         style="fill:#dfddfe;fill-opacity:1;stroke-width:0.26458332"
         id="path6829"
         inkscape:connector-curvature="0" />
      <path
         d="m -11.062833,82.709053 -0.0463,-0.586493 h -0.01543 q -0.300964,0.663663 -0.910608,0.663663 -0.409001,0 -0.659804,-0.324114 -0.246945,-0.327973 -0.246945,-0.875881 0,-0.598069 0.358841,-0.945335 0.358841,-0.351124 1.007071,-0.381992 l 0.451445,-0.02315 v -0.347266 q 0,-0.586493 -0.146623,-0.85273 -0.146624,-0.270095 -0.486172,-0.270095 -0.358841,0 -0.733117,0.235369 l -0.158198,-0.289388 q 0.436011,-0.270096 0.914466,-0.270096 0.51704,0 0.744692,0.327973 0.227652,0.324115 0.227652,1.088099 v 2.851437 z m -0.891315,-0.235369 q 0.393568,0 0.609644,-0.385851 0.219935,-0.389709 0.219935,-1.099674 v -0.436011 l -0.436011,0.02315 q -0.505465,0.02701 -0.752409,0.281671 -0.243086,0.250803 -0.243086,0.736975 0,0.455303 0.162057,0.667521 0.162057,0.212218 0.43987,0.212219 z"
         style="fill:#dfddfe;fill-opacity:1;stroke-width:0.26458332"
         id="path6831"
         inkscape:connector-curvature="0" />
      <path
         d="m -2.4352111,78.449261 q 1.2270052,0 1.2270052,2.156906 0,1.064948 -0.3048221,1.624431 -0.304822,0.555625 -0.8797396,0.555625 -0.3009635,0 -0.5479079,-0.165916 -0.2469445,-0.165915 -0.4090018,-0.49003 h -0.030868 l -0.050161,0.578776 h -0.3009636 v -6.003837 h 0.3665582 v 1.863659 l -0.015434,0.505465 h 0.030868 q 0.3318316,-0.625079 0.9144666,-0.625079 z m -0.015434,0.339549 q -0.4823133,0 -0.6983897,0.424436 -0.2160764,0.424436 -0.2160764,1.392921 v 0.09646 q 0,1.751763 0.9299002,1.751763 0.4244357,0 0.6327951,-0.451446 0.2122179,-0.451445 0.2122179,-1.396779 0,-0.906749 -0.2045009,-1.362053 -0.2045008,-0.455304 -0.6559462,-0.455304 z"
         style="fill:#dfddfe;fill-opacity:1;stroke-width:0.26458332"
         id="path6833"
         inkscape:connector-curvature="0" />
      <path
         d="M 7.5274529,82.709053 V 79.82289 q 0,-0.567201 -0.1504818,-0.80257 -0.1466232,-0.239227 -0.4823133,-0.239227 -0.4437283,0 -0.6675217,0.393568 -0.2237934,0.393567 -0.2237934,1.242439 v 2.291953 H 5.6367845 v -6.003837 h 0.3665582 v 1.948546 q 0,0.266237 -0.015434,0.443729 h 0.030868 q 0.1234722,-0.312539 0.3704167,-0.482314 0.2508029,-0.173633 0.5208984,-0.173633 0.532474,0 0.7562674,0.347266 0.2237934,0.347266 0.2237934,1.03408 v 2.886163 z"
         style="fill:#dfddfe;fill-opacity:1;stroke-width:0.26458332"
         id="path6835"
         inkscape:connector-curvature="0" />
      <path
         d="m 16.004591,82.786223 q -0.628937,0 -0.949193,-0.544049 Q 14.739,81.694266 14.739,80.637035 q 0,-1.072665 0.320256,-1.632149 0.324115,-0.563342 0.953052,-0.563342 0.389709,0 0.648229,0.142765 l -0.142765,0.324115 q -0.25852,-0.119614 -0.474596,-0.119614 -0.922183,0 -0.922183,1.840508 0,1.825074 0.922183,1.825074 0.273954,0 0.59421,-0.123473 V 82.6396 q -0.127331,0.06945 -0.312539,0.108038 -0.185209,0.03859 -0.320256,0.03859 z"
         style="fill:#dfddfe;fill-opacity:1;stroke-width:0.26458332"
         id="path6837"
         inkscape:connector-curvature="0" />
    </g>
    <text
       xml:space="preserve"
       style="font-style:normal;font-variant:normal;font-weight:normal;font-stretch:normal;font-size:7.90222216px;line-height:1.25;font-family:'Open Sans Condensed';-inkscape-font-specification:'Open Sans Condensed, ';letter-spacing:0px;word-spacing:0px;fill:#000000;fill-opacity:1;stroke:none;stroke-width:0.26458332"
       x="-108.6207"
       y="106.31538"
       id="text4998-2-0-5"><tspan
         sodipodi:role="line"
         x="-108.6207"
         y="106.31538"
         style="stroke-width:0.26458332"
         id="tspan5000-5-1-2">1   2   3   4   5   6   7   8   9  10  11  12  13  14  15  16....</tspan></text>
    <text
       xml:space="preserve"
       style="font-style:normal;font-variant:normal;font-weight:normal;font-stretch:normal;font-size:7.90222216px;line-height:1.25;font-family:'Open Sans Condensed';-inkscape-font-specification:'Open Sans Condensed, ';letter-spacing:0px;word-spacing:0px;fill:#000000;fill-opacity:1;stroke:none;stroke-width:0.26458332"
       x="-108.49242"
       y="113.39804"
       id="text5010-6-4-8"><tspan
         sodipodi:role="line"
         id="tspan5008-4-6-4"
         x="-108.49242"
         y="113.39804"
         style="stroke-width:0.26458332">c   c    g   c   e   g    b   c   d   e     f     g    a    b    h    c </tspan></text>
  </g>
</svg>
